<?xml version="1.0" encoding="utf-8"?>
<!-- Generator: Adobe Illustrator 25.4.1, SVG Export Plug-In . SVG Version: 6.00 Build 0)  -->
<svg version="1.1" id="Layer_1" xmlns="http://www.w3.org/2000/svg" xmlns:xlink="http://www.w3.org/1999/xlink" x="0px" y="0px"
	 viewBox="0 0 2500 2500" style="enable-background:new 0 0 2500 2500;" xml:space="preserve">
<style type="text/css">
	.st0{fill:#1A1A1A;}
	.st1{fill:#0080FF;}
	.st2{fill:url(#SVGID_1_);}
	.st3{fill:url(#SVGID_00000124845183902592580940000012616075254877987774_);}
	.st4{fill:url(#SVGID_00000138546652252126311280000008918860208893503671_);}
	.st5{fill:url(#SVGID_00000039828638419796818950000014673727473686073277_);}
	.st6{fill:url(#SVGID_00000054950349185162910550000011277780461930312351_);}
	.st7{fill:url(#SVGID_00000087370732472398986560000005066641672393635771_);}
	.st8{fill:url(#SVGID_00000029025827009080118140000009183817936392689574_);}
	.st9{fill:url(#SVGID_00000132076674522560260220000001484283848364264855_);}
	.st10{fill:url(#SVGID_00000036956830935890713390000006222028548825571262_);}
	.st11{fill:url(#SVGID_00000079462418659860322800000001895072045027948934_);}
	.st12{fill:url(#SVGID_00000145030672567425055180000016237320153932295063_);}
	.st13{fill:url(#SVGID_00000089573054615186637520000008008111951082620296_);}
	.st14{fill:url(#SVGID_00000113314527505841012230000006064239908029718180_);}
	.st15{fill:url(#SVGID_00000085945795588421168140000003781512195018921630_);}
	.st16{fill:url(#SVGID_00000121269380946168857610000014180490401366335408_);}
	.st17{fill:url(#SVGID_00000128479133167601603200000010320983953689857178_);}
	.st18{fill:url(#SVGID_00000066474332663773374910000014051647176154642310_);}
	.st19{fill:url(#SVGID_00000163050303460376906780000014811370704547754139_);}
	.st20{fill:url(#SVGID_00000068668746733911510570000000637344985275337637_);}
	.st21{fill:url(#SVGID_00000097501339003065128740000007126174432392325031_);}
	.st22{fill:url(#SVGID_00000096028129432762478360000014383159801660270014_);}
	.st23{fill:url(#SVGID_00000140720896460107812150000017612396923775159424_);}
	.st24{fill:url(#SVGID_00000064312638685746100450000016267847578709161369_);}
	.st25{fill:url(#SVGID_00000115513137766002238060000018040342126591728823_);}
	.st26{fill:url(#SVGID_00000087403130761364884630000007452344586255986877_);}
</style>
<g>
	<g>
		<g>
			<path class="st0" d="M990.1,1207.4c0,5.9,2.2,10.5,6.5,14c4.3,3.5,10.5,5.2,18.6,5.2c8.1,0,14.2-1.3,18.4-3.9
				c4.2-2.6,6.3-6.4,6.3-11.5c0-3-1.1-5.6-3.3-7.8c-2.2-2.2-7.3-4.3-15.5-6.2l-20.1-4.7c-12.7-3-21.4-7.1-26-12.3
				c-4.6-5.2-6.9-12.3-6.9-21.5c0-10.7,3.8-19.4,11.4-26.2c7.6-6.8,19-10.2,34.2-10.2c15.1,0,26.6,3.8,34.4,11.4
				c7.8,7.6,11.8,16.6,11.8,26.8h-23.8c-0.5-5.8-2.8-10.2-6.8-13.3c-4-3-9.8-4.6-17.5-4.6c-6.2,0-11.2,1.3-14.9,3.8
				c-3.8,2.6-5.7,6-5.7,10.4c0,3,0.8,5.5,2.5,7.5c1.7,2,4.4,3.4,8.1,4.4l31.7,7.8c11.4,2.8,19.3,6.8,23.7,12
				c4.4,5.2,6.5,11.8,6.5,19.6c0,12.9-4.5,22.6-13.4,29c-8.9,6.5-20,9.7-33.2,9.7c-17.1,0-29.8-3.6-38.2-10.9
				c-8.4-7.3-12.5-16.9-12.5-28.7H990.1z"/>
			<path class="st0" d="M1160.8,1243.9h-23.1v-54.6c0-5.4-1.2-9.4-3.7-12.1c-2.4-2.7-6.2-4-11.3-4c-5.7,0-10.2,1.9-13.4,5.7
				c-3.2,3.8-4.8,8.7-4.8,14.6v50.4h-23.1v-118.5h23.1v41.8h0.3c5.3-9,13.8-13.5,25.7-13.5c9.1,0,16.5,2.7,22,8
				c5.5,5.3,8.3,12.5,8.3,21.3V1243.9z"/>
			<path class="st0" d="M1205.2,1145.7h-23.1v-21.4h23.1V1145.7z M1205.2,1156.1v87.8h-23.1v-87.8H1205.2z"/>
			<path class="st0" d="M1305.3,1218.2c-2.7,9.1-7.5,16-14.4,20.8c-6.9,4.8-15,7.2-24.2,7.2c-14.5,0-25.5-4-33.1-12
				c-7.6-8-11.4-19-11.4-33.2c0-14.2,3.6-25.6,10.8-34.3c7.2-8.7,17.9-13,32.1-13c12.8,0,22.9,4.1,30.2,12.2
				c7.4,8.1,11,20.2,11,36.2v4.1h-61c0.5,7.1,2.6,12.5,6.3,16.1c3.7,3.6,8.6,5.4,14.9,5.4c3.8,0,7-0.9,9.8-2.6
				c2.7-1.7,4.5-4,5.3-6.9H1305.3z M1282.5,1191.3c-0.5-5.6-2.3-10.1-5.5-13.5c-3.2-3.4-7.3-5.1-12.3-5.1c-11,0-17.2,6.2-18.8,18.5
				H1282.5z"/>
			<path class="st0" d="M1345.5,1243.9h-23.1v-118.5h23.1V1243.9z"/>
			<path class="st0" d="M1448.2,1243.9h-22.6v-11h-0.3c-5.3,8.9-13.8,13.4-25.5,13.4c-11.6,0-20.7-4.3-27.2-13
				c-6.5-8.6-9.7-20.1-9.7-34.2c0-13.9,3.4-24.9,10.2-33c6.8-8.1,15.6-12.2,26.2-12.2c11.3,0,19.8,4.6,25.5,13.7h0.3v-42.1h23.1
				V1243.9z M1386.6,1200.6c0,7.7,1.7,14.1,5.1,19.1c3.4,5,8,7.5,13.9,7.5c6.5,0,11.5-2.3,15.1-6.9c3.6-4.6,5.4-10.7,5.4-18.3
				c0-9.3-1.7-16.4-5-21.1s-8.3-7.1-14.8-7.1c-6.2,0-11,2.4-14.4,7.1C1388.3,1185.6,1386.6,1192.2,1386.6,1200.6z"/>
			<path class="st0" d="M1547.5,1164.2c-3.1-13.6-11.8-20.5-26.3-20.5c-9,0-16.1,3.7-21.4,11c-5.3,7.3-8,17.5-8,30.5
				c0,12.2,2.6,22,7.7,29.4c5.2,7.4,12.4,11.1,21.7,11.1c14.2,0,22.9-7.4,26.3-22.3h24.7c-1.8,12.1-7.1,22.5-16,31
				c-8.9,8.5-20.7,12.8-35.5,12.8c-16.5,0-29.7-5.5-39.5-16.4c-9.8-10.9-14.7-26.2-14.7-45.8c0-18.7,4.9-33.9,14.6-45.3
				c9.7-11.5,23-17.2,39.9-17.2c14.8,0,26.7,4,35.8,12c9.1,8,14.2,18,15.4,29.9H1547.5z"/>
			<path class="st0" d="M1669.4,1243.9h-23.1v-54.6c0-5.4-1.2-9.4-3.7-12.1c-2.4-2.7-6.2-4-11.3-4c-5.7,0-10.2,1.9-13.4,5.7
				c-3.2,3.8-4.8,8.7-4.8,14.6v50.4H1590v-118.5h23.1v41.8h0.3c5.3-9,13.8-13.5,25.7-13.5c9.1,0,16.5,2.7,22,8
				c5.5,5.3,8.3,12.5,8.3,21.3V1243.9z"/>
			<path class="st0" d="M1768.2,1218.2c-2.7,9.1-7.5,16-14.4,20.8c-6.9,4.8-15,7.2-24.2,7.2c-14.5,0-25.5-4-33.1-12
				c-7.6-8-11.4-19-11.4-33.2c0-14.2,3.6-25.6,10.8-34.3c7.2-8.7,17.9-13,32.1-13c12.8,0,22.9,4.1,30.2,12.2
				c7.4,8.1,11,20.2,11,36.2v4.1h-61c0.5,7.1,2.6,12.5,6.3,16.1c3.7,3.6,8.6,5.4,14.9,5.4c3.8,0,7-0.9,9.8-2.6
				c2.7-1.7,4.5-4,5.3-6.9H1768.2z M1745.4,1191.3c-0.5-5.6-2.3-10.1-5.5-13.5c-3.2-3.4-7.3-5.1-12.3-5.1c-11,0-17.2,6.2-18.8,18.5
				H1745.4z"/>
			<path class="st0" d="M1860.8,1211.9c-1.3,10.3-5.4,18.5-12.3,24.9c-6.9,6.3-16.2,9.5-27.8,9.5c-13.1,0-23.1-3.9-30.1-11.7
				c-7-7.8-10.4-18.5-10.4-32.1c0-16.1,3.7-28.3,11-36.4c7.3-8.2,17.7-12.2,31.1-12.2c10.4,0,19.3,2.8,26.5,8.5
				c7.3,5.7,11.3,14.1,12.2,25.1h-23.4c-0.9-4.9-2.6-8.5-5.2-10.8c-2.6-2.3-6-3.5-10.2-3.5c-5.9,0-10.4,2.3-13.6,7
				c-3.1,4.7-4.7,10.8-4.7,18.5c0,11,1.6,18.5,4.8,22.5c3.2,4,7.5,6,13,6c4.4,0,8-1.5,10.9-4.6c2.8-3,4.4-6.6,4.8-10.8H1860.8z"/>
			<path class="st0" d="M1900.6,1243.9h-23.1v-118.5h23.1v64l29-33.4h28.4l-31,34l31.8,53.8h-27.7l-21-37.6l-9.6,9.9V1243.9z"/>
			<path class="st0" d="M2043.3,1218.2c-2.7,9.1-7.5,16-14.4,20.8c-6.9,4.8-15,7.2-24.2,7.2c-14.5,0-25.5-4-33.1-12
				c-7.6-8-11.4-19-11.4-33.2c0-14.2,3.6-25.6,10.8-34.3c7.2-8.7,17.9-13,32.1-13c12.8,0,22.9,4.1,30.2,12.2
				c7.4,8.1,11,20.2,11,36.2v4.1h-61c0.5,7.1,2.6,12.5,6.3,16.1c3.7,3.6,8.6,5.4,14.9,5.4c3.8,0,7-0.9,9.8-2.6
				c2.7-1.7,4.5-4,5.3-6.9H2043.3z M2020.5,1191.3c-0.5-5.6-2.3-10.1-5.5-13.5c-3.2-3.4-7.3-5.1-12.3-5.1c-11,0-17.2,6.2-18.8,18.5
				H2020.5z"/>
			<path class="st0" d="M2060.3,1156.1h22.2v15.2h0.3c2.7-5.7,5.9-10.1,9.7-13.1c3.8-3,8.6-4.4,14.3-4.4c1.5,0,3,0.1,4.4,0.3v23.4
				c-1.1-0.2-3.3-0.3-6.6-0.3c-7.2,0-12.5,1.7-16,5.2c-3.5,3.5-5.2,8.7-5.2,15.8v45.7h-23.1V1156.1z"/>
		</g>
		<g>
			<path class="st1" d="M1230.8,1309.3h8l-19.3,52.7h-7.5l-19.2-52.7h7.9l15.1,44.9h0.1L1230.8,1309.3z"/>
			<path class="st1" d="M1278.8,1349.9c-0.7,4-2.7,7.3-5.8,9.9c-2.8,2.2-6.5,3.3-11,3.4c-5.4,0-9.6-1.8-12.8-5.3
				c-3.2-3.5-4.7-8.2-4.7-14c0-6.7,1.6-12,4.9-15.7c3.3-3.8,7.8-5.6,13.6-5.6c5.2,0,9.2,1.9,12.2,5.8c2.9,3.9,4.4,9.4,4.4,16.6
				h-28.1c0,4,0.9,7.1,2.8,9.3c1.9,2.2,4.7,3.3,8.4,3.3c2.6,0,4.9-0.8,6.8-2.4c1.9-1.6,2.9-3.3,3.1-5.2H1278.8z M1272.6,1339.7
				c-0.3-4.2-1.4-7.1-3.3-8.8c-1.9-1.7-4.3-2.6-7.4-2.6c-3.1,0-5.7,1.1-7.6,3.3c-1.9,2.2-2.9,4.9-3.1,8.1H1272.6z"/>
			<path class="st1" d="M1300.7,1362h-6.5v-38.4h6.1v6.4h0.1c2.8-5,6.4-7.5,10.8-7.5c0.7,0,1.3,0.1,1.7,0.2v6.7h-2.4
				c-2.9,0-5.3,1-7.1,2.9c-1.8,2-2.8,4.4-2.8,7.3V1362z"/>
			<path class="st1" d="M1325.5,1316.6v-7.3h6.5v7.3H1325.5z M1332,1362h-6.5v-38.4h6.5V1362z"/>
			<path class="st1" d="M1356.8,1328.9v33.1h-6.5v-33.1h-5.3v-5.3h5.3v-6.6c0-2.9,0.9-5,2.6-6.4c1.8-1.4,4.2-2.1,7.4-2.1
				c1.1,0,2,0,2.9,0.1v5.8c-0.8-0.1-1.6-0.1-2.6-0.1c-1.4,0-2.4,0.4-3,1.1c-0.6,0.7-0.8,1.8-0.8,3.4v4.8h6.5v5.3H1356.8z"/>
			<path class="st1" d="M1400.5,1323.6h7l-13.7,37.7c-0.2,0.7-0.5,1.3-0.7,1.9c-2.1,5.5-3.9,9.4-5.4,11.4c-1.5,2.1-3.9,3.1-7.3,3.1
				c-1.8,0-3.2-0.2-4.3-0.6v-5.9c1.2,0.4,2.6,0.6,4,0.6c1.6,0,2.7-0.5,3.5-1.5c0.7-1,1.8-3.4,3.2-7.3l-14.3-39.5h7.3l10.3,31.3h0.1
				L1400.5,1323.6z"/>
			<path class="st1" d="M1414.7,1354.2h7.6v7.2c0,3.6-0.8,6.4-2.3,8.2c-1.5,1.8-3.3,2.9-5.4,3.2v-3.4c2.6-0.3,3.9-2.8,3.9-7.4h-3.9
				V1354.2z"/>
			<path class="st1" d="M1467.3,1309.3h21.4c6.9,0,12.3,2.4,16.2,7.1c3.9,4.7,5.9,10.9,5.9,18.5c0,8.1-2,14.7-5.9,19.6
				c-3.9,5-9.4,7.5-16.5,7.5h-21.1V1309.3z M1474.4,1355.9h13.8c4.8,0,8.5-1.8,11.2-5.5c2.7-3.7,4.1-8.7,4.1-15
				c0-6.3-1.4-11.2-4.1-14.7s-6.7-5.3-11.8-5.3h-13.2V1355.9z"/>
			<path class="st1" d="M1524.3,1342.7c0-5.7,1.6-10.5,4.8-14.4c3.2-3.9,7.5-5.8,13-5.8c5.6,0,10,2,13.1,5.9
				c3.2,3.9,4.7,8.7,4.7,14.3c0,5.6-1.6,10.4-4.7,14.4c-3.1,4-7.5,6-13.2,6c-5.4,0-9.7-1.9-12.9-5.8
				C1525.9,1353.5,1524.3,1348.6,1524.3,1342.7z M1530.9,1342.7c0,4.3,1,7.8,2.9,10.6c1.9,2.8,4.7,4.1,8.2,4.1
				c3.7,0,6.5-1.4,8.4-4.3c1.9-2.9,2.9-6.3,2.9-10.4c0-4.1-1-7.5-2.9-10.3c-1.9-2.8-4.7-4.2-8.4-4.2c-3.4,0-6.1,1.3-8.1,4
				C1531.9,1334.8,1530.9,1338.3,1530.9,1342.7z"/>
			<path class="st1" d="M1606.1,1362h-6.5v-23.6c0-3.6-0.6-6.2-1.9-7.8c-1.3-1.5-3.4-2.3-6.3-2.3c-2.9,0-5.3,1.1-7.2,3.3
				c-1.9,2.2-2.9,5.4-2.9,9.5v20.9h-6.5v-38.4h6.1v5.4h0.1c3-4.3,6.9-6.5,11.6-6.5c4.3,0,7.7,1.2,10,3.5c2.3,2.3,3.5,5.6,3.5,9.9
				V1362z"/>
			<path class="st1" d="M1622.1,1309.3h5.4v18.7h-5.4V1309.3z"/>
			<path class="st1" d="M1651.8,1328.9v25c0,1,0.3,1.7,0.8,2.2s1.5,0.8,2.9,0.8h2.5v5.1c-2.3,0.3-4,0.5-4.8,0.5
				c-2.7,0-4.7-0.6-5.9-1.9c-1.2-1.3-1.9-3.4-1.9-6.3v-25.3h-5.2v-5.3h5.2v-10.7h6.5v10.7h6.2v5.3H1651.8z"/>
			<path class="st1" d="M1707.1,1315.6h-17.7v-6.3h42.8v6.3h-17.9v46.4h-7.1V1315.6z"/>
			<path class="st1" d="M1742.7,1362h-6.5v-38.4h6.1v6.4h0.1c2.8-5,6.4-7.5,10.8-7.5c0.7,0,1.3,0.1,1.7,0.2v6.7h-2.4
				c-2.9,0-5.3,1-7.1,2.9c-1.8,2-2.8,4.4-2.8,7.3V1362z"/>
			<path class="st1" d="M1767.2,1323.6h6.5v25.5c0,2.8,0.6,4.9,1.9,6.3c1.3,1.4,3.1,2.1,5.5,2.1c3.3,0,5.9-1.2,7.8-3.5
				c1.9-2.4,2.8-5.4,2.8-9.2v-21.2h6.5v38.4h-6.1v-5.6l-0.1-0.1c-2.4,4.6-6.5,6.8-12.2,6.8c-3.7,0-6.7-1-9-3c-2.3-2-3.5-5-3.5-8.9
				V1323.6z"/>
			<path class="st1" d="M1836.8,1334.5c-0.1-2.3-0.9-3.9-2.5-4.9c-1.5-1-3.8-1.5-6.7-1.5c-2.1,0-3.9,0.5-5.4,1.4
				c-1.5,0.9-2.2,2.3-2.2,4c0,1.4,0.4,2.4,1.3,3.1c0.9,0.7,2.8,1.4,5.7,2.1l6.4,1.6c3.9,1,6.6,2.2,8.3,3.7c1.7,1.5,2.5,3.6,2.5,6.4
				c0,3.8-1.4,6.8-4.1,9.2c-2.8,2.4-6.4,3.5-11.1,3.5c-5.4,0-9.4-1.1-12.2-3.4c-2.8-2.2-4.2-5.6-4.2-10.1h6.2c0.1,2.7,1,4.6,2.6,5.9
				c1.7,1.3,4.2,1.9,7.5,1.9c2.7,0,4.8-0.5,6.4-1.6c1.6-1.1,2.4-2.6,2.4-4.5c0-1.4-0.5-2.4-1.5-3.3c-1-0.8-3.1-1.6-6.1-2.3l-7.5-1.8
				c-3-0.8-5.3-1.9-6.7-3.4c-1.4-1.5-2.2-3.5-2.2-5.9c0-3.8,1.4-6.8,4.1-9c2.7-2.2,6.2-3.3,10.6-3.3c4.6,0,8.2,1.1,10.7,3.4
				c2.5,2.3,3.8,5.1,3.9,8.7H1836.8z"/>
			<path class="st1" d="M1866.9,1328.9v25c0,1,0.3,1.7,0.8,2.2c0.5,0.5,1.5,0.8,2.9,0.8h2.5v5.1c-2.3,0.3-4,0.5-4.8,0.5
				c-2.7,0-4.7-0.6-5.9-1.9c-1.2-1.3-1.9-3.4-1.9-6.3v-25.3h-5.2v-5.3h5.2v-10.7h6.5v10.7h6.2v5.3H1866.9z"/>
		</g>
	</g>
	<g>
		<linearGradient id="SVGID_1_" gradientUnits="userSpaceOnUse" x1="680.0928" y1="1400.5566" x2="680.0928" y2="1420.1556">
			<stop  offset="0" style="stop-color:#00BBFE"/>
			<stop  offset="1" style="stop-color:#0080FF"/>
		</linearGradient>
		<path class="st2" d="M687.8,1416.9c1.6,0.6,3.3,1.3,4.9,1.9c0,0,0,0,0,0C691,1418.2,689.4,1417.5,687.8,1416.9
			c-0.2-0.1-0.4-0.2-0.6-0.2c-1.6-0.6-3.1-1.3-4.7-1.9c-1.7-0.7-3.4-1.4-5.1-2.2c-1.7-0.7-3.4-1.5-5-2.2c-1.2-0.6-2.5-1.1-3.8-1.7
			c-0.4-0.2-0.7-0.3-1.1-0.5v0c0.4,0.2,0.8,0.4,1.1,0.5c1.2,0.6,2.5,1.2,3.8,1.7c1.7,0.8,3.4,1.5,5,2.2c1.7,0.7,3.4,1.4,5.1,2.2
			c1.6,0.6,3.1,1.3,4.7,1.9C687.4,1416.7,687.6,1416.8,687.8,1416.9z"/>
		<g>
			
				<linearGradient id="SVGID_00000173154977258299628080000008246292685135715716_" gradientUnits="userSpaceOnUse" x1="577.5853" y1="1023.2734" x2="577.5853" y2="1448.3683">
				<stop  offset="0" style="stop-color:#00BBFE"/>
				<stop  offset="1" style="stop-color:#0080FF"/>
			</linearGradient>
			<path style="fill:url(#SVGID_00000173154977258299628080000008246292685135715716_);" d="M692.7,1418.8
				C692.7,1418.8,692.7,1418.8,692.7,1418.8c-25.2,18.3-52.4,34-81.3,46.6c-27.6-15.2-53.3-33.3-76.8-54
				c-19.4-17-37.2-35.8-53.3-56.1c-6.6-8.3-12.9-16.9-18.9-25.7v0c1.1-1.2,2.2-2.3,3.4-3.4c5.6-5.7,11.6-11.1,17.8-16.1
				c3.1-2.5,6.3-5,9.5-7.3c0,0,0,0,0,0c3.3-2.4,6.6-4.6,9.9-6.8c2-1.3,4.1-2.6,6.1-3.8c2.1-1.2,4.2-2.4,6.3-3.6
				c1.4-0.8,2.8-1.5,4.3-2.3s2.9-1.5,4.3-2.2v0h0c7,10.6,14.7,20.7,22.8,30.5c0,0,0,0,0,0c1.3,1.6,2.6,3.2,4,4.7
				c0,0,0.1,0.1,0.1,0.1c2.8,3.2,5.5,6.3,8.4,9.4c0.2,0.2,0.3,0.3,0.5,0.5c1,1.1,2.1,2.2,3.2,3.4c0.2,0.2,0.3,0.4,0.5,0.6
				c0.3,0.3,0.5,0.5,0.7,0.8c0.7,0.7,1.4,1.4,2.1,2.1c0,0,0.1,0.1,0.1,0.1c1,1,2,2.1,3.1,3.1c0.4,0.4,0.8,0.8,1.2,1.2
				c1,1,1.9,1.9,2.9,2.8c0.4,0.4,0.7,0.7,1.1,1.1c0.4,0.4,0.7,0.7,1.1,1c0.2,0.2,0.4,0.4,0.6,0.6c1.1,1,2.2,2,3.3,3.1
				c0.5,0.5,1,1,1.6,1.4c0.6,0.6,1.3,1.2,1.9,1.7c0.7,0.7,1.4,1.3,2.1,1.9c1.7,1.5,3.5,3.1,5.3,4.6c0.7,0.6,1.5,1.2,2.2,1.8
				c0.7,0.6,1.5,1.2,2.2,1.8c0.3,0.2,0.5,0.5,0.8,0.7c0.4,0.3,0.8,0.7,1.2,1c1,0.8,2,1.6,3,2.4c0.1,0.1,0.2,0.2,0.4,0.3
				c1.1,0.9,2.2,1.8,3.4,2.6c2.1,1.6,4.2,3.2,6.3,4.8c1.2,0.9,2.4,1.8,3.6,2.6c0.5,0.4,1.1,0.8,1.7,1.2c0,0,0,0,0,0
				c0.2,0.1,0.4,0.3,0.6,0.4c0.2,0.1,0.4,0.3,0.6,0.4c1.5,1,3,2,4.5,3.1c1.3,0.9,2.7,1.8,4.1,2.7c0.4,0.2,0.7,0.5,1.1,0.7
				c1.7,1.1,3.5,2.2,5.2,3.4c0.1,0,0.1,0.1,0.2,0.1c1.9,1.2,3.8,2.3,5.7,3.5c1.3,0.8,2.6,1.5,4,2.3c0.4,0.2,0.8,0.5,1.1,0.7
				c0.8,0.4,1.5,0.9,2.3,1.3c0.6,0.3,1.1,0.6,1.7,1c0.6,0.3,1.1,0.6,1.7,0.9c1.2,0.7,2.4,1.3,3.6,2c1.2,0.7,2.5,1.3,3.8,2
				c1.3,0.7,2.7,1.4,4,2c1,0.5,2,1,3.1,1.5c1.2,0.6,2.5,1.2,3.7,1.8c0.1,0,0.2,0.1,0.3,0.1c0.3,0.1,0.6,0.3,0.8,0.4
				c0.4,0.2,0.8,0.4,1.1,0.5c1.2,0.6,2.5,1.2,3.8,1.7c1.7,0.8,3.4,1.5,5,2.2c1.7,0.7,3.4,1.4,5.1,2.2c1.6,0.6,3.1,1.3,4.7,1.9
				c0.2,0.1,0.4,0.2,0.6,0.3C689.4,1417.5,691.1,1418.1,692.7,1418.8z"/>
			
				<linearGradient id="SVGID_00000148619057113557731350000009335628955358899333_" gradientUnits="userSpaceOnUse" x1="629.2856" y1="1366.4805" x2="629.2856" y2="1397.0083">
				<stop  offset="0" style="stop-color:#00BBFE"/>
				<stop  offset="1" style="stop-color:#0080FF"/>
			</linearGradient>
			<path style="fill:url(#SVGID_00000148619057113557731350000009335628955358899333_);" d="M641.4,1394.2c0.4,0.2,0.8,0.5,1.1,0.7
				C642.1,1394.7,641.7,1394.5,641.4,1394.2c-1.3-0.8-2.6-1.5-4-2.3c-1.9-1.1-3.8-2.3-5.7-3.5c-0.1,0-0.1-0.1-0.2-0.1
				c-1.7-1.1-3.5-2.2-5.2-3.4c-0.4-0.2-0.7-0.5-1.1-0.7c-1.4-0.9-2.7-1.8-4.1-2.7c-1.5-1-3-2-4.5-3.1c-0.2-0.1-0.4-0.3-0.6-0.4
				c0.2,0.1,0.4,0.3,0.6,0.4c1.5,1,3,2,4.5,3.1c1.3,0.9,2.7,1.8,4.1,2.7c0.4,0.2,0.7,0.5,1.1,0.7c1.7,1.1,3.5,2.2,5.2,3.4
				c0.1,0,0.1,0.1,0.2,0.1c1.9,1.2,3.8,2.3,5.7,3.5C638.7,1392.7,640,1393.4,641.4,1394.2z"/>
			
				<linearGradient id="SVGID_00000109726845454028744580000006655149647387913093_" gradientUnits="userSpaceOnUse" x1="656.9778" y1="1389.689" x2="656.9778" y2="1409.361">
				<stop  offset="0" style="stop-color:#00BBFE"/>
				<stop  offset="1" style="stop-color:#0080FF"/>
			</linearGradient>
			<path style="fill:url(#SVGID_00000109726845454028744580000006655149647387913093_);" d="M666.7,1407.6c0.3,0.1,0.6,0.3,0.8,0.4
				C667.2,1407.9,666.9,1407.8,666.7,1407.6c-0.1,0-0.2-0.1-0.3-0.1c-1.2-0.6-2.5-1.2-3.7-1.8c-1-0.5-2.1-1-3.1-1.5
				c-1.3-0.7-2.7-1.3-4-2c-1.3-0.7-2.5-1.3-3.8-2c-1.2-0.6-2.4-1.3-3.6-2c-0.6-0.3-1.2-0.6-1.7-1c0.6,0.3,1.1,0.6,1.7,0.9
				c1.2,0.7,2.4,1.3,3.6,2c1.2,0.7,2.5,1.3,3.8,2c1.3,0.7,2.7,1.4,4,2c1,0.5,2,1,3.1,1.5c1.2,0.6,2.5,1.2,3.7,1.8
				C666.5,1407.5,666.6,1407.6,666.7,1407.6z"/>
			
				<linearGradient id="SVGID_00000007392352814906075380000006096964628013118891_" gradientUnits="userSpaceOnUse" x1="665.9808" y1="1033.2074" x2="665.9808" y2="1432.1456">
				<stop  offset="0" style="stop-color:#00BBFE"/>
				<stop  offset="1" style="stop-color:#0080FF"/>
			</linearGradient>
			<path style="fill:url(#SVGID_00000007392352814906075380000006096964628013118891_);" d="M824.7,1263
				c-11.7,23.4-25.4,45.5-41,66.2c-6.3,8.4-13,16.6-19.9,24.6c-6.5,7.4-13.2,14.6-20.1,21.5c-2.2,2.2-4.4,4.4-6.6,6.5
				c-1.8,1.7-3.6,3.4-5.4,5.1c-1.7,1.6-3.5,3.2-5.2,4.8c-2.5,2.2-5,4.4-7.5,6.6c-1.6,1.4-3.2,2.7-4.8,4c-0.9,0.7-1.7,1.4-2.6,2.1
				l-11.6-4.4c-1.4-0.5-2.8-1.1-4.2-1.6c-0.4-0.2-0.8-0.3-1.2-0.5l-4.3-1.7c-1.6-0.7-3.3-1.4-4.7-2c-1.6-0.7-3.2-1.4-4.9-2.2
				c-1.1-0.5-2.2-1-3.3-1.5l-0.6-0.3c0,0-1.6-0.8-1.8-0.9c-1.1-0.5-2.2-1.1-3.3-1.6l-0.3-0.1c-0.8-0.4-1.6-0.8-2.4-1.2l-0.4-0.2
				c-1.2-0.6-2.4-1.2-3.7-1.9c0,0-2.6-1.3-3.6-1.9c-1.1-0.6-2.1-1.1-3.2-1.7l-0.3-0.2c-2.3-1.3-4.3-2.4-6.2-3.5c0,0-3.1-1.8-3.8-2.2
				c-1.7-1-3.5-2.1-5.2-3.2l-0.4-0.3c-1.6-1-3.2-2-4.7-3c-0.3-0.2-0.7-0.5-1.1-0.7c0,0-1.1-0.7-2.1-1.4c2-1.3,4-2.6,5.9-4
				c0.1-0.1,0.3-0.2,0.4-0.3c1.7-1.2,3.5-2.4,5.2-3.7c0.2-0.1,0.3-0.3,0.5-0.4c1.8-1.3,3.6-2.6,5.4-4c1.6-1.2,3.2-2.4,4.8-3.6
				c2.2-1.7,4.4-3.5,6.6-5.3c1.6-1.3,3.3-2.7,4.9-4c0.2-0.2,0.4-0.3,0.6-0.5c1.8-1.5,3.5-3,5.2-4.5c1.8-1.6,3.5-3.2,5.3-4.8
				c7.8-7.2,15.3-14.7,22.4-22.5c7.2-8,14.1-16.3,20.6-24.9c-29.7-14.8-63.2-23.1-98.7-23.1c-24,0-47.1,3.8-68.7,10.9
				c-0.8,0.2-1.6,0.5-2.4,0.8c-3.2,1.1-6.3,2.2-9.4,3.4c0,0,0,0,0,0h0l-1.5-2.2l-0.4-0.6c-0.5-0.8-1-1.5-1.5-2.3
				c-0.4-0.5-0.7-1.1-1.1-1.6c-1-1.6-2-3.1-2.9-4.6l-0.1-0.2c-0.5-0.7-1-1.5-1.4-2.2c-0.9-1.5-1.8-3-2.8-4.7c-0.7-1.1-1.3-2.3-2-3.5
				c-0.1-0.1-0.2-0.3-0.2-0.4l-1.5-2.6l-0.2-0.4c-0.1-0.2-0.3-0.5-0.4-0.8l-0.2-0.3l-0.2-0.3c-0.5-0.9-1-1.8-1.5-2.7l-0.1-0.2
				c-1.8-3.3-3.6-6.7-5.2-10.1l-0.1-0.2c-0.4-0.8-0.8-1.6-1.2-2.4c0,0,0,0,0,0c0,0-0.5-1-0.9-1.9c-0.2-0.5-0.4-0.9-0.6-1.2
				c0-0.1-0.1-0.1-0.1-0.2c-0.1-0.3-0.3-0.6-0.4-0.9c-0.5-1-0.9-2-1.4-3l-0.1-0.3c-0.8-1.8-1.6-3.6-2.4-5.4
				c-0.5-1.2-1.1-2.5-1.6-3.7c-0.1-0.1-0.1-0.3-0.2-0.5c-0.2-0.5-0.4-1-0.6-1.4c-0.3-0.8-0.6-1.5-0.9-2.3c-0.4-1-0.8-2.1-1.2-3.1
				c-0.2-0.4-0.3-0.8-0.4-1.2c0,0,0-0.1,0-0.1c28.5-12.1,59.3-19.9,91.6-22.5c2.1-0.2,4.3-0.3,6.5-0.5c6-0.4,11.9-0.5,18-0.5
				c49.7,0,96.6,12.2,137.8,33.7C784.3,1230.4,805.6,1245.5,824.7,1263z"/>
			
				<linearGradient id="SVGID_00000149347376514596422760000013658644193201751734_" gradientUnits="userSpaceOnUse" x1="676.5899" y1="1023.2846" x2="676.5899" y2="1448.3789">
				<stop  offset="0" style="stop-color:#00BBFE"/>
				<stop  offset="1" style="stop-color:#0080FF"/>
			</linearGradient>
			<path style="fill:url(#SVGID_00000149347376514596422760000013658644193201751734_);" d="M868.1,1110.9c-2.7,28.9-8.2,57-16.4,84
				c-2.8,9.2-5.8,18.2-9.1,27c-20.1-17-42.3-31.7-66-43.7c3-9.3,5.5-18.7,7.8-28.3c-48.3-24.8-103.1-38.7-161.1-38.7
				c-10.3,0-20.5,0.4-30.6,1.3c-3.4,0.3-6.7,0.6-10,1c0,0,0,0,0,0c-3.3,0.4-6.6,0.8-9.9,1.3c-1.7,0.2-3.4,0.5-5,0.7
				c-4.9,0.8-9.8,1.7-14.7,2.6c-4.9,1-9.7,2.1-14.5,3.2c-3.2,0.8-6.4,1.6-9.5,2.5c-1.6,0.4-3.2,0.9-4.8,1.3c-1.5,0.4-3,0.9-4.5,1.3
				c-10.5,3.2-20.9,6.9-31,11.1h0v-0.1c0-0.2-0.1-0.4-0.1-0.6l0-0.2l0-0.2c-0.1-0.5-0.1-1-0.2-1.5c-0.2-1.2-0.4-2.5-0.5-3.7
				c-0.1-0.5-0.1-1.1-0.2-1.6l-0.1-0.5c-0.6-4.8-1.1-9.6-1.5-14.4c-0.1-0.7-0.1-1.3-0.2-2c-0.2-2.1-0.3-4.2-0.4-6.2
				c0-0.8-0.1-1.6-0.1-2.5c-0.2-3.1-0.3-6.1-0.3-9.2v-0.2c0-0.6,0-1.2,0-1.8c0-1.7,0-3.4,0-5.1c0-1.9,0-3.8,0-5.6
				c0.1-3.8,0.2-7.5,0.4-11.2c0.1-1.9,0.2-3.7,0.3-5.6l0.6-8.8c43-14.4,89.1-22.2,136.9-22.2c60.4,0,117.9,12.4,170,34.9
				C819.7,1080.8,844.8,1094.8,868.1,1110.9z"/>
			
				<linearGradient id="SVGID_00000115517086557747709490000008312569207553883286_" gradientUnits="userSpaceOnUse" x1="508.1197" y1="1207.4606" x2="508.1197" y2="1214.2469">
				<stop  offset="0" style="stop-color:#00BBFE"/>
				<stop  offset="1" style="stop-color:#0080FF"/>
			</linearGradient>
			<path style="fill:url(#SVGID_00000115517086557747709490000008312569207553883286_);" d="M507.7,1209.3c-0.2-0.4-0.3-0.8-0.4-1.2
				c0.5,1.4,1.1,2.8,1.7,4.2C508.5,1211.3,508.1,1210.3,507.7,1209.3z"/>
			
				<linearGradient id="SVGID_00000154397572758950871450000001692627831573172126_" gradientUnits="userSpaceOnUse" x1="509.7156" y1="1211.7738" x2="509.7156" y2="1217.756">
				<stop  offset="0" style="stop-color:#00BBFE"/>
				<stop  offset="1" style="stop-color:#0080FF"/>
			</linearGradient>
			<path style="fill:url(#SVGID_00000154397572758950871450000001692627831573172126_);" d="M509.9,1214.6c-0.3-0.8-0.6-1.5-0.9-2.3
				c0.5,1.2,1,2.5,1.5,3.7C510.3,1215.6,510.1,1215.1,509.9,1214.6z"/>
			
				<linearGradient id="SVGID_00000073692641811445603860000009433875123178045595_" gradientUnits="userSpaceOnUse" x1="515.4163" y1="1225.1882" x2="515.4163" y2="1230.495">
				<stop  offset="0" style="stop-color:#00BBFE"/>
				<stop  offset="1" style="stop-color:#0080FF"/>
			</linearGradient>
			<path style="fill:url(#SVGID_00000073692641811445603860000009433875123178045595_);" d="M514.8,1226l-0.1-0.3
				c0.5,1.1,1,2.2,1.5,3.3C515.7,1228,515.2,1227,514.8,1226z"/>
			
				<linearGradient id="SVGID_00000092457917477040437500000002895137256295800962_" gradientUnits="userSpaceOnUse" x1="516.4301" y1="1228.845" x2="516.4301" y2="1230.5819">
				<stop  offset="0" style="stop-color:#00BBFE"/>
				<stop  offset="1" style="stop-color:#0080FF"/>
			</linearGradient>
			<path style="fill:url(#SVGID_00000092457917477040437500000002895137256295800962_);" d="M516.6,1229.9c-0.1-0.3-0.3-0.6-0.4-0.9
				c0.2,0.4,0.3,0.7,0.5,1.1C516.6,1230,516.6,1230,516.6,1229.9z"/>
			
				<linearGradient id="SVGID_00000021822467353509980510000014274387609374858429_" gradientUnits="userSpaceOnUse" x1="516.962" y1="1229.9136" x2="516.962" y2="1231.811">
				<stop  offset="0" style="stop-color:#00BBFE"/>
				<stop  offset="1" style="stop-color:#0080FF"/>
			</linearGradient>
			<path style="fill:url(#SVGID_00000021822467353509980510000014274387609374858429_);" d="M517.2,1231.3c-0.2-0.5-0.4-0.9-0.6-1.2
				C516.9,1230.5,517.1,1230.9,517.2,1231.3z"/>
			
				<linearGradient id="SVGID_00000080901413413726710520000014202884367488683924_" gradientUnits="userSpaceOnUse" x1="518.819" y1="1232.7952" x2="518.819" y2="1237.0729">
				<stop  offset="0" style="stop-color:#00BBFE"/>
				<stop  offset="1" style="stop-color:#0080FF"/>
			</linearGradient>
			<path style="fill:url(#SVGID_00000080901413413726710520000014202884367488683924_);" d="M519.4,1235.7c-0.4-0.8-0.8-1.6-1.2-2.4
				c0.4,0.9,0.9,1.8,1.3,2.7L519.4,1235.7z"/>
			
				<linearGradient id="SVGID_00000023983211170662606040000004872415187894515118_" gradientUnits="userSpaceOnUse" x1="456.359" y1="1023.2875" x2="456.359" y2="1448.3501">
				<stop  offset="0" style="stop-color:#00BBFE"/>
				<stop  offset="1" style="stop-color:#0080FF"/>
			</linearGradient>
			<path style="fill:url(#SVGID_00000023983211170662606040000004872415187894515118_);" d="M524.1,1283.9L524.1,1283.9
				c-1.4,0.7-2.9,1.5-4.3,2.2c-1.4,0.8-2.8,1.5-4.3,2.3c-2.1,1.2-4.2,2.4-6.3,3.6c-2.1,1.2-4.1,2.5-6.1,3.8
				c-3.4,2.2-6.7,4.5-9.9,6.8c0,0,0,0,0,0c-3.3,2.4-6.4,4.8-9.5,7.3c-6.2,5.1-12.2,10.4-17.8,16.1c-1.1,1.1-2.2,2.3-3.4,3.4
				c-3.9-5.7-7.6-11.4-11.2-17.3c-10.1-16.5-19.1-33.7-26.9-51.6c-6-13.8-11.4-28-16-42.5c-2.9-9.2-5.6-18.6-7.9-28.1
				c-6.8-27.8-10.8-56.5-11.9-86.1c24.1-15.7,49.9-29.1,77.1-39.8c-0.5,7.8-0.8,15.8-0.8,23.7c0,2.5,0,4.9,0.1,7.4
				c0,2.1,0.1,4.2,0.2,6.3c0,1.1,0.1,2.2,0.2,3.4c0.1,1.6,0.1,3.3,0.2,4.9l0.1,0.7c0.1,2,0.3,4.1,0.4,6.1c0,0.6,0.1,1.2,0.1,1.8
				c0.1,1.6,0.3,3.2,0.4,4.9c0.1,0.8,0.2,1.7,0.3,2.5c0.2,1.8,0.4,3.5,0.6,5.3c0,0.4,0.1,0.7,0.1,1.1c0.2,1.9,0.5,3.7,0.7,5.6
				c0.1,0.7,0.2,1.4,0.3,2.2c0.3,2,0.6,4.1,0.9,6.1c4,24.4,10.5,48,19.3,70.4c0.8,1.9,1.5,3.9,2.3,5.8c0.8,2,1.6,3.9,2.5,5.9
				c0.8,1.9,1.7,3.9,2.6,5.8c0.7,1.5,1.3,3,2,4.5c0.3,0.7,0.7,1.4,1,2.1c0.7,1.4,1.3,2.7,2,4.1c1.8,3.6,3.6,7.2,5.6,10.8
				c0.6,1.1,1.1,2.1,1.7,3.2c0.3,0.5,0.6,1.1,0.9,1.6c0.6,1.2,1.3,2.3,2,3.5c0.6,1,1.2,2,1.8,3.1c1.1,1.8,2.2,3.7,3.3,5.5
				c0.5,0.8,1,1.7,1.6,2.5C520.1,1277.9,522.1,1280.9,524.1,1283.9z"/>
			
				<linearGradient id="SVGID_00000018211250542191536230000015617870663768505525_" gradientUnits="userSpaceOnUse" x1="525.5438" y1="1245.4382" x2="525.5438" y2="1250.5842">
				<stop  offset="0" style="stop-color:#00BBFE"/>
				<stop  offset="1" style="stop-color:#0080FF"/>
			</linearGradient>
			<path style="fill:url(#SVGID_00000018211250542191536230000015617870663768505525_);" d="M524.7,1245.9c0.6,1.1,1.2,2.1,1.7,3.2
				l-0.2-0.3c-0.5-0.9-1-1.8-1.5-2.7L524.7,1245.9z"/>
			
				<linearGradient id="SVGID_00000072986949623923691160000005765660017479179676_" gradientUnits="userSpaceOnUse" x1="527.5812" y1="1248.5072" x2="527.5812" y2="1255.1327">
				<stop  offset="0" style="stop-color:#00BBFE"/>
				<stop  offset="1" style="stop-color:#0080FF"/>
			</linearGradient>
			<path style="fill:url(#SVGID_00000072986949623923691160000005765660017479179676_);" d="M526.4,1249.1c0.8,1.4,1.5,2.8,2.3,4.1
				c-0.5-0.9-1-1.7-1.5-2.6l-0.2-0.4c-0.1-0.2-0.3-0.5-0.4-0.8L526.4,1249.1z"/>
			
				<linearGradient id="SVGID_00000005249819583468597900000004702841914251044530_" gradientUnits="userSpaceOnUse" x1="533.4929" y1="1250.8632" x2="533.4929" y2="1275.9178">
				<stop  offset="0" style="stop-color:#00BBFE"/>
				<stop  offset="1" style="stop-color:#0080FF"/>
			</linearGradient>
			<path style="fill:url(#SVGID_00000005249819583468597900000004702841914251044530_);" d="M528.7,1253.3c3,5.3,6.2,10.5,9.5,15.6
				c-1-1.6-2-3.1-2.9-4.6l-0.1-0.2c-0.5-0.7-1-1.5-1.4-2.2c-1.5-2.5-3.1-5.1-4.8-8.2C528.9,1253.6,528.8,1253.4,528.7,1253.3z"/>
			
				<linearGradient id="SVGID_00000036956643704551646920000014202133481352814476_" gradientUnits="userSpaceOnUse" x1="541.9542" y1="1273.0916" x2="541.9542" y2="1276.6617">
				<stop  offset="0" style="stop-color:#00BBFE"/>
				<stop  offset="1" style="stop-color:#0080FF"/>
			</linearGradient>
			<polygon style="fill:url(#SVGID_00000036956643704551646920000014202133481352814476_);" points="542.7,1275.7 542.7,1275.7 
				541.2,1273.4 			"/>
			
				<linearGradient id="SVGID_00000026878586868262534590000001507047034935609757_" gradientUnits="userSpaceOnUse" x1="456.359" y1="1023.2875" x2="456.359" y2="1448.3501">
				<stop  offset="0" style="stop-color:#00BBFE"/>
				<stop  offset="1" style="stop-color:#0080FF"/>
			</linearGradient>
			<path style="fill:url(#SVGID_00000026878586868262534590000001507047034935609757_);" d="M524.1,1283.9L524.1,1283.9
				c-1.4,0.7-2.9,1.5-4.3,2.2c-1.4,0.8-2.8,1.5-4.3,2.3c-2.1,1.2-4.2,2.4-6.3,3.6c-2.1,1.2-4.1,2.5-6.1,3.8
				c-3.4,2.2-6.7,4.5-9.9,6.8c0,0,0,0,0,0c-3.3,2.4-6.4,4.8-9.5,7.3c-6.2,5.1-12.2,10.4-17.8,16.1c-1.1,1.1-2.2,2.3-3.4,3.4
				c-3.9-5.7-7.6-11.4-11.2-17.3c-10.1-16.5-19.1-33.7-26.9-51.6c-6-13.8-11.4-28-16-42.5c-2.9-9.2-5.6-18.6-7.9-28.1
				c-6.8-27.8-10.8-56.5-11.9-86.1c24.1-15.7,49.9-29.1,77.1-39.8c-0.5,7.8-0.8,15.8-0.8,23.7c0,2.5,0,4.9,0.1,7.4
				c0,2.1,0.1,4.2,0.2,6.3c0,1.1,0.1,2.2,0.2,3.4c0.1,1.6,0.1,3.3,0.2,4.9l0.1,0.7c0.1,2,0.3,4.1,0.4,6.1c0,0.6,0.1,1.2,0.1,1.8
				c0.1,1.6,0.3,3.2,0.4,4.9c0.1,0.8,0.2,1.7,0.3,2.5c0.2,1.8,0.4,3.5,0.6,5.3c0,0.4,0.1,0.7,0.1,1.1c0.2,1.9,0.5,3.7,0.7,5.6
				c0.1,0.7,0.2,1.4,0.3,2.2c0.3,2,0.6,4.1,0.9,6.1c4,24.4,10.5,48,19.3,70.4c0.8,1.9,1.5,3.9,2.3,5.8c0.8,2,1.6,3.9,2.5,5.9
				c0.8,1.9,1.7,3.9,2.6,5.8c0.7,1.5,1.3,3,2,4.5c0.3,0.7,0.7,1.4,1,2.1c0.7,1.4,1.3,2.7,2,4.1c1.8,3.6,3.6,7.2,5.6,10.8
				c0.6,1.1,1.1,2.1,1.7,3.2c0.3,0.5,0.6,1.1,0.9,1.6c0.6,1.2,1.3,2.3,2,3.5c0.6,1,1.2,2,1.8,3.1c1.1,1.8,2.2,3.7,3.3,5.5
				c0.5,0.8,1,1.7,1.6,2.5C520.1,1277.9,522.1,1280.9,524.1,1283.9z"/>
			
				<linearGradient id="SVGID_00000054954211448186265020000001211837706463339151_" gradientUnits="userSpaceOnUse" x1="541.9743" y1="1270.2361" x2="541.9743" y2="1275.4554">
				<stop  offset="0" style="stop-color:#00BBFE"/>
				<stop  offset="1" style="stop-color:#0080FF"/>
			</linearGradient>
			<path style="fill:url(#SVGID_00000054954211448186265020000001211837706463339151_);" d="M542.7,1275.6
				C542.7,1275.6,542.7,1275.7,542.7,1275.6L542.7,1275.6l-1.5-2.2C541.7,1274.2,542.2,1274.9,542.7,1275.6z"/>
			
				<linearGradient id="SVGID_00000105426131074044311410000002469099452799926950_" gradientUnits="userSpaceOnUse" x1="577.5853" y1="1023.2734" x2="577.5853" y2="1448.3683">
				<stop  offset="0" style="stop-color:#00BBFE"/>
				<stop  offset="1" style="stop-color:#0080FF"/>
			</linearGradient>
			<path style="fill:url(#SVGID_00000105426131074044311410000002469099452799926950_);" d="M692.7,1418.8
				C692.7,1418.8,692.7,1418.8,692.7,1418.8c-25.2,18.3-52.4,34-81.3,46.6c-27.6-15.2-53.3-33.3-76.8-54
				c-19.4-17-37.2-35.8-53.3-56.1c-6.6-8.3-12.9-16.9-18.9-25.7v0c1.1-1.2,2.2-2.3,3.4-3.4c5.6-5.7,11.6-11.1,17.8-16.1
				c3.1-2.5,6.3-5,9.5-7.3c0,0,0,0,0,0c3.3-2.4,6.6-4.6,9.9-6.8c2-1.3,4.1-2.6,6.1-3.8c2.1-1.2,4.2-2.4,6.3-3.6
				c1.4-0.8,2.8-1.5,4.3-2.3s2.9-1.5,4.3-2.2v0h0c7,10.6,14.7,20.7,22.8,30.5c0,0,0,0,0,0c1.3,1.6,2.6,3.2,4,4.7
				c0,0,0.1,0.1,0.1,0.1c2.8,3.2,5.5,6.3,8.4,9.4c0.2,0.2,0.3,0.3,0.5,0.5c1,1.1,2.1,2.2,3.2,3.4c0.2,0.2,0.3,0.4,0.5,0.6
				c0.3,0.3,0.5,0.5,0.7,0.8c0.7,0.7,1.4,1.4,2.1,2.1c0,0,0.1,0.1,0.1,0.1c1,1,2,2.1,3.1,3.1c0.4,0.4,0.8,0.8,1.2,1.2
				c1,1,1.9,1.9,2.9,2.8c0.4,0.4,0.7,0.7,1.1,1.1c0.4,0.4,0.7,0.7,1.1,1c0.2,0.2,0.4,0.4,0.6,0.6c1.1,1,2.2,2,3.3,3.1
				c0.5,0.5,1,1,1.6,1.4c0.6,0.6,1.3,1.2,1.9,1.7c0.7,0.7,1.4,1.3,2.1,1.9c1.7,1.5,3.5,3.1,5.3,4.6c0.7,0.6,1.5,1.2,2.2,1.8
				c0.7,0.6,1.5,1.2,2.2,1.8c0.3,0.2,0.5,0.5,0.8,0.7c0.4,0.3,0.8,0.7,1.2,1c1,0.8,2,1.6,3,2.4c0.1,0.1,0.2,0.2,0.4,0.3
				c1.1,0.9,2.2,1.8,3.4,2.6c2.1,1.6,4.2,3.2,6.3,4.8c1.2,0.9,2.4,1.8,3.6,2.6c0.5,0.4,1.1,0.8,1.7,1.2c0,0,0,0,0,0
				c0.2,0.1,0.4,0.3,0.6,0.4c0.2,0.1,0.4,0.3,0.6,0.4c1.5,1,3,2,4.5,3.1c1.3,0.9,2.7,1.8,4.1,2.7c0.4,0.2,0.7,0.5,1.1,0.7
				c1.7,1.1,3.5,2.2,5.2,3.4c0.1,0,0.1,0.1,0.2,0.1c1.9,1.2,3.8,2.3,5.7,3.5c1.3,0.8,2.6,1.5,4,2.3c0.4,0.2,0.8,0.5,1.1,0.7
				c0.8,0.4,1.5,0.9,2.3,1.3c0.6,0.3,1.1,0.6,1.7,1c0.6,0.3,1.1,0.6,1.7,0.9c1.2,0.7,2.4,1.3,3.6,2c1.2,0.7,2.5,1.3,3.8,2
				c1.3,0.7,2.7,1.4,4,2c1,0.5,2,1,3.1,1.5c1.2,0.6,2.5,1.2,3.7,1.8c0.1,0,0.2,0.1,0.3,0.1c0.3,0.1,0.6,0.3,0.8,0.4
				c0.4,0.2,0.8,0.4,1.1,0.5c1.2,0.6,2.5,1.2,3.8,1.7c1.7,0.8,3.4,1.5,5,2.2c1.7,0.7,3.4,1.4,5.1,2.2c1.6,0.6,3.1,1.3,4.7,1.9
				c0.2,0.1,0.4,0.2,0.6,0.3C689.4,1417.5,691.1,1418.1,692.7,1418.8z"/>
			
				<linearGradient id="SVGID_00000163764787083274126270000009714586937678199458_" gradientUnits="userSpaceOnUse" x1="666.0009" y1="1033.2074" x2="666.0009" y2="1432.1456">
				<stop  offset="0" style="stop-color:#00BBFE"/>
				<stop  offset="1" style="stop-color:#0080FF"/>
			</linearGradient>
			<path style="fill:url(#SVGID_00000163764787083274126270000009714586937678199458_);" d="M824.7,1263
				c-11.7,23.4-25.4,45.5-41,66.2c-6.3,8.4-13,16.6-19.9,24.6c-6.5,7.4-13.2,14.6-20.1,21.5c-2.2,2.2-4.4,4.4-6.6,6.5
				c-1.8,1.7-3.6,3.4-5.4,5.1c-1.7,1.6-3.5,3.2-5.2,4.8c-2.5,2.2-5,4.4-7.5,6.6c-1.6,1.4-3.2,2.7-4.8,4c-0.9,0.7-1.7,1.4-2.6,2.1
				l-11.6-4.4c-1.4-0.5-2.8-1.1-4.2-1.6c-0.4-0.2-0.8-0.3-1.2-0.5l-4.3-1.7c-1.6-0.7-3.3-1.4-4.7-2c-1.6-0.7-3.2-1.4-4.9-2.2
				c-1.1-0.5-2.2-1-3.3-1.5l-0.6-0.3c0,0-1.6-0.8-1.8-0.9c-1.1-0.5-2.2-1.1-3.3-1.6l-0.3-0.1c-0.8-0.4-1.6-0.8-2.4-1.2l-0.4-0.2
				c-1.2-0.6-2.4-1.2-3.7-1.9c0,0-2.6-1.3-3.6-1.9c-1.1-0.6-2.1-1.1-3.2-1.7l-0.3-0.2c-2.3-1.3-4.3-2.4-6.2-3.5c0,0-3.1-1.8-3.8-2.2
				c-1.7-1-3.5-2.1-5.2-3.2l-0.4-0.3c-1.6-1-3.2-2-4.7-3c-0.3-0.2-0.7-0.5-1.1-0.7c0,0-1.1-0.7-2.1-1.4c2-1.3,4-2.6,5.9-4
				c0.1-0.1,0.3-0.2,0.4-0.3c1.7-1.2,3.5-2.4,5.2-3.7c0.2-0.1,0.3-0.3,0.5-0.4c1.8-1.3,3.6-2.6,5.4-4c1.6-1.2,3.2-2.4,4.8-3.6
				c2.2-1.7,4.4-3.5,6.6-5.3c1.6-1.3,3.3-2.7,4.9-4c0.2-0.2,0.4-0.3,0.6-0.5c1.8-1.5,3.5-3,5.2-4.5c1.8-1.6,3.5-3.2,5.3-4.8
				c7.8-7.2,15.3-14.7,22.4-22.5c7.2-8,14.1-16.3,20.6-24.9c-29.7-14.8-63.2-23.1-98.7-23.1c-24,0-47.1,3.8-68.7,10.9
				c-0.8,0.2-1.6,0.5-2.4,0.8c-3.2,1.1-6.3,2.2-9.4,3.4c0,0,0,0,0,0h0l-1.5-2.2l-0.4-0.6c-0.5-0.8-1-1.5-1.5-2.3
				c-0.4-0.5-0.7-1.1-1.1-1.6c-1-1.6-2-3.1-2.9-4.6l-0.1-0.2c-0.5-0.7-1-1.5-1.4-2.2c-0.9-1.5-1.8-3-2.8-4.7c-0.7-1.1-1.3-2.3-2-3.5
				c-0.1-0.1-0.2-0.3-0.2-0.4l-1.5-2.6l-0.2-0.4c-0.1-0.2-0.3-0.5-0.4-0.8l-0.2-0.3l-0.2-0.3c-0.5-0.9-1-1.8-1.5-2.7l-0.1-0.2
				c-1.8-3.3-3.6-6.7-5.2-10.1l-0.1-0.2c-0.4-0.8-0.8-1.6-1.2-2.4c0,0,0,0,0,0c0,0-0.5-1-0.9-1.9c-0.2-0.5-0.4-0.9-0.6-1.2
				c0-0.1-0.1-0.1-0.1-0.2c-0.1-0.3-0.3-0.6-0.4-0.9c-0.5-1-0.9-2-1.4-3l-0.1-0.3c-0.8-1.8-1.6-3.6-2.4-5.4
				c-0.5-1.2-1.1-2.5-1.6-3.7c-0.1-0.1-0.1-0.3-0.2-0.5c-0.2-0.5-0.4-1-0.6-1.4c-0.3-0.8-0.6-1.5-0.9-2.3c-0.4-1-0.8-2.1-1.2-3.1
				c-0.2-0.4-0.3-0.8-0.4-1.2c28.5-12.1,59.3-19.9,91.5-22.6c2.1-0.2,4.3-0.3,6.5-0.5c6-0.4,11.9-0.5,18-0.5
				c49.7,0,96.6,12.2,137.8,33.7C784.3,1230.4,805.6,1245.5,824.7,1263z"/>
			
				<linearGradient id="SVGID_00000019660292823606589450000002249326246724450721_" gradientUnits="userSpaceOnUse" x1="676.5899" y1="1023.2846" x2="676.5899" y2="1448.3789">
				<stop  offset="0" style="stop-color:#00BBFE"/>
				<stop  offset="1" style="stop-color:#0080FF"/>
			</linearGradient>
			<path style="fill:url(#SVGID_00000019660292823606589450000002249326246724450721_);" d="M868.1,1110.9c-2.7,28.9-8.2,57-16.4,84
				c-2.8,9.2-5.8,18.2-9.1,27c-20.1-17-42.3-31.7-66-43.7c3-9.3,5.5-18.7,7.8-28.3c-48.3-24.8-103.1-38.7-161.1-38.7
				c-10.3,0-20.5,0.4-30.6,1.3c-3.4,0.3-6.7,0.6-10,1c0,0,0,0,0,0c-3.3,0.4-6.6,0.8-9.9,1.3c-1.7,0.2-3.4,0.5-5,0.7
				c-4.9,0.8-9.8,1.7-14.7,2.6c-4.9,1-9.7,2.1-14.5,3.2c-3.2,0.8-6.4,1.6-9.5,2.5c-1.6,0.4-3.2,0.9-4.8,1.3c-1.5,0.4-3,0.9-4.5,1.3
				c-10.5,3.2-20.9,6.9-31,11h0c0-0.2-0.1-0.4-0.1-0.6l0-0.2l0-0.2c-0.1-0.5-0.1-1-0.2-1.5c-0.2-1.2-0.4-2.5-0.5-3.7
				c-0.1-0.5-0.1-1.1-0.2-1.6l-0.1-0.5c-0.6-4.8-1.1-9.6-1.5-14.4c-0.1-0.7-0.1-1.3-0.2-2c-0.2-2.1-0.3-4.2-0.4-6.2
				c0-0.8-0.1-1.6-0.1-2.5c-0.2-3.1-0.3-6.1-0.3-9.2v-0.2c0-0.6,0-1.2,0-1.8c0-1.7,0-3.4,0-5.1c0-1.9,0-3.8,0-5.6
				c0.1-3.8,0.2-7.5,0.4-11.2c0.1-1.9,0.2-3.7,0.3-5.6l0.6-8.8c43-14.4,89.1-22.2,136.9-22.2c60.4,0,117.9,12.4,170,34.9
				C819.7,1080.8,844.8,1094.8,868.1,1110.9z"/>
			
				<linearGradient id="SVGID_00000117648227476859775450000012509306549941100678_" gradientUnits="userSpaceOnUse" x1="488.678" y1="1136.9655" x2="488.678" y2="1138.0913">
				<stop  offset="0" style="stop-color:#00BBFE"/>
				<stop  offset="1" style="stop-color:#0080FF"/>
			</linearGradient>
			<path style="fill:url(#SVGID_00000117648227476859775450000012509306549941100678_);" d="M488.7,1137.7c0-0.2-0.1-0.4-0.1-0.6
				l0.1,0.3C488.7,1137.5,488.7,1137.6,488.7,1137.7L488.7,1137.7L488.7,1137.7L488.7,1137.7z"/>
			
				<linearGradient id="SVGID_00000113331639359961240410000015316662570365036934_" gradientUnits="userSpaceOnUse" x1="451.0194" y1="1025.9612" x2="451.0194" y2="1423.3317">
				<stop  offset="0" style="stop-color:#00BBFE"/>
				<stop  offset="1" style="stop-color:#0080FF"/>
			</linearGradient>
			<path style="fill:url(#SVGID_00000113331639359961240410000015316662570365036934_);" d="M513.4,1266.9
				c-23,11.7-43.8,27-62.1,45.5c-10.1-16.5-19.1-33.7-26.9-51.6c-6-13.8-11.4-28-16-42.5c-2.9-9.2-5.6-18.6-7.9-28.1
				c-6.8-27.8-10.8-56.5-11.9-86.1c24.1-15.7,49.9-29.1,77.1-39.8c-0.5,7.8-0.8,15.8-0.8,23.7c0,2.5,0,4.9,0.1,7.4
				c0,2.1,0.1,4.2,0.2,6.3c0,1.1,0.1,2.2,0.2,3.4c0.1,1.6,0.1,3.3,0.2,4.9l0.1,0.7c0.1,2,0.3,4.1,0.4,6.1c0,0.6,0.1,1.2,0.1,1.8
				c0.1,1.6,0.3,3.2,0.4,4.9c0.1,0.8,0.2,1.7,0.3,2.5c0.2,1.8,0.4,3.5,0.6,5.3c0,0.4,0.1,0.7,0.1,1.1c0.2,1.9,0.5,3.7,0.7,5.6
				c0.1,0.7,0.2,1.4,0.3,2.2c0.3,2,0.6,4.1,0.9,6.1c4,24.4,10.5,48,19.3,70.4c0.8,1.9,1.5,3.9,2.3,5.8c0.8,2,1.6,3.9,2.5,5.9
				c0.8,1.9,1.7,3.9,2.6,5.8c0.7,1.5,1.3,3,2,4.5c0.3,0.7,0.7,1.4,1,2.1c0.7,1.4,1.3,2.7,2,4.1c1.8,3.6,3.6,7.2,5.6,10.8
				c0.6,1.1,1.1,2.1,1.7,3.2c0.3,0.5,0.6,1.1,0.9,1.6c0.6,1.2,1.3,2.3,2,3.5C512.2,1264.8,512.8,1265.8,513.4,1266.9z"/>
			
				<linearGradient id="SVGID_00000091721830290667247390000012234509159869815227_" gradientUnits="userSpaceOnUse" x1="456.359" y1="1023.2875" x2="456.359" y2="1448.3501">
				<stop  offset="0" style="stop-color:#00BBFE"/>
				<stop  offset="1" style="stop-color:#0080FF"/>
			</linearGradient>
			<path style="fill:url(#SVGID_00000091721830290667247390000012234509159869815227_);" d="M524.1,1283.9L524.1,1283.9
				c-1.4,0.7-2.9,1.5-4.3,2.2c-1.4,0.8-2.8,1.5-4.3,2.3c-2.1,1.2-4.2,2.4-6.3,3.6c-2.1,1.2-4.1,2.5-6.1,3.8
				c-3.4,2.2-6.7,4.5-9.9,6.8c0,0,0,0,0,0c-3.3,2.4-6.4,4.8-9.5,7.3c-6.2,5.1-12.2,10.4-17.8,16.1c-1.1,1.1-2.2,2.3-3.4,3.4
				c-3.9-5.7-7.6-11.4-11.2-17.3c-10.1-16.5-19.1-33.7-26.9-51.6c-6-13.8-11.4-28-16-42.5c-2.9-9.2-5.6-18.6-7.9-28.1
				c-6.8-27.8-10.8-56.5-11.9-86.1c24.1-15.7,49.9-29.1,77.1-39.8c-0.5,7.8-0.8,15.8-0.8,23.7c0,2.5,0,4.9,0.1,7.4
				c0,2.1,0.1,4.2,0.2,6.3c0,1.1,0.1,2.2,0.2,3.4c0.1,1.6,0.1,3.3,0.2,4.9l0.1,0.7c0.1,2,0.3,4.1,0.4,6.1c0,0.6,0.1,1.2,0.1,1.8
				c0.1,1.6,0.3,3.2,0.4,4.9c0.1,0.8,0.2,1.7,0.3,2.5c0.2,1.8,0.4,3.5,0.6,5.3c0,0.4,0.1,0.7,0.1,1.1c0.2,1.9,0.5,3.7,0.7,5.6
				c0.1,0.7,0.2,1.4,0.3,2.2c0.3,2,0.6,4.1,0.9,6.1c4,24.4,10.5,48,19.3,70.4c0.8,1.9,1.5,3.9,2.3,5.8c0.8,2,1.6,3.9,2.5,5.9
				c0.8,1.9,1.7,3.9,2.6,5.8c0.7,1.5,1.3,3,2,4.5c0.3,0.7,0.7,1.4,1,2.1c0.7,1.4,1.3,2.7,2,4.1c1.8,3.6,3.6,7.2,5.6,10.8
				c0.6,1.1,1.1,2.1,1.7,3.2c0.3,0.5,0.6,1.1,0.9,1.6c0.6,1.2,1.3,2.3,2,3.5c0.6,1,1.2,2,1.8,3.1c1.1,1.8,2.2,3.7,3.3,5.5
				c0.5,0.8,1,1.7,1.6,2.5C520.1,1277.9,522.1,1280.9,524.1,1283.9z"/>
		</g>
	</g>
</g>
</svg>
