<?xml version="1.0" encoding="utf-8"?>
<!-- Generator: Adobe Illustrator 25.4.1, SVG Export Plug-In . SVG Version: 6.00 Build 0)  -->
<svg version="1.1" id="Layer_1" xmlns="http://www.w3.org/2000/svg" xmlns:xlink="http://www.w3.org/1999/xlink" x="0px" y="0px"
	 viewBox="0 0 2500 2500" style="enable-background:new 0 0 2500 2500;" xml:space="preserve">
<style type="text/css">
	.st0{fill:#1A1A1A;}
	.st1{fill:#0080FF;}
	.st2{fill:url(#SVGID_1_);}
	.st3{fill:url(#SVGID_00000116941733518308866690000008605078596726217357_);}
	.st4{fill:url(#SVGID_00000146462315416554640050000014906807632676894655_);}
	.st5{fill:url(#SVGID_00000163774683768008144610000012173824746043709870_);}
	.st6{fill:url(#SVGID_00000019645052330053528740000001499626482968270515_);}
	.st7{fill:url(#SVGID_00000010303715639676726110000007626411014707952039_);}
	.st8{fill:url(#SVGID_00000071532449412024666040000007975133378117864337_);}
	.st9{fill:url(#SVGID_00000111179499487850189440000018327832321355988159_);}
	.st10{fill:url(#SVGID_00000051357166747116548560000008105209848895508868_);}
	.st11{fill:url(#SVGID_00000000901691387174847860000018171439315721850017_);}
	.st12{fill:url(#SVGID_00000054251096553444893700000008203198965448787638_);}
	.st13{fill:url(#SVGID_00000003813650428442084630000018067541894030354353_);}
	.st14{fill:url(#SVGID_00000129204177408083557110000010209058266252213657_);}
	.st15{fill:url(#SVGID_00000015344758031646513070000000457385700502262913_);}
	.st16{fill:url(#SVGID_00000070816623977665295740000004081267704143793558_);}
	.st17{fill:url(#SVGID_00000007418416160366038830000013357411095708813981_);}
	.st18{fill:url(#SVGID_00000130613658666179887150000015771724750606693273_);}
	.st19{fill:url(#SVGID_00000051354360274672060880000011567098044921968294_);}
	.st20{fill:url(#SVGID_00000085973346450760763430000015276126893481923252_);}
	.st21{fill:url(#SVGID_00000031202503527858226950000015373191032591061124_);}
	.st22{fill:url(#SVGID_00000108990502554997699630000001668717903899315856_);}
	.st23{fill:url(#SVGID_00000156559898568145782450000006373183043485235095_);}
	.st24{fill:url(#SVGID_00000001636789904317846120000014627385060616269978_);}
	.st25{fill:url(#SVGID_00000078023712459604470570000008858799901581251975_);}
	.st26{fill:url(#SVGID_00000176723535928872672040000011145165653334576565_);}
</style>
<g>
	<g>
		<path class="st0" d="M640.3,1574.3c0,6.5,2.4,11.7,7.2,15.6c4.8,3.9,11.7,5.8,20.7,5.8c9,0,15.8-1.5,20.5-4.4
			c4.7-2.9,7.1-7.2,7.1-12.8c0-3.4-1.2-6.3-3.6-8.7c-2.4-2.5-8.2-4.8-17.3-6.9l-22.5-5.2c-14.2-3.4-23.9-7.9-29-13.7
			c-5.1-5.8-7.7-13.8-7.7-23.9c0-11.9,4.2-21.7,12.7-29.2c8.5-7.6,21.2-11.4,38.1-11.4c16.8,0,29.6,4.3,38.3,12.8
			c8.7,8.5,13.1,18.5,13.2,29.9h-26.5c-0.6-6.5-3.1-11.4-7.5-14.8c-4.4-3.4-10.9-5.1-19.5-5.1c-6.9,0-12.4,1.4-16.7,4.3
			c-4.2,2.8-6.3,6.7-6.3,11.5c0,3.4,0.9,6.1,2.8,8.4c1.9,2.2,4.9,3.8,9,4.9l35.3,8.7c12.8,3.1,21.6,7.6,26.4,13.4
			c4.9,5.8,7.3,13.1,7.3,21.9c0,14.4-5,25.2-15,32.4c-10,7.2-22.3,10.8-37.1,10.8c-19,0-33.2-4.1-42.5-12.2c-9.3-8.1-14-18.8-14-32
			H640.3z"/>
		<path class="st0" d="M830.6,1615h-25.8v-60.8c0-6-1.4-10.5-4.1-13.5c-2.7-3-6.9-4.5-12.6-4.5c-6.4,0-11.4,2.1-14.9,6.4
			c-3.5,4.3-5.3,9.7-5.3,16.3v56.2h-25.8v-132.1h25.8v46.6h0.4c5.9-10,15.4-15,28.7-15c10.2,0,18.3,3,24.5,8.9
			c6.1,6,9.2,13.9,9.2,23.8V1615z"/>
		<path class="st0" d="M880.2,1505.5h-25.8v-23.9h25.8V1505.5z M880.2,1517.1v97.9h-25.8v-97.9H880.2z"/>
		<path class="st0" d="M991.8,1586.3c-3,10.1-8.4,17.9-16.1,23.2c-7.7,5.4-16.7,8-27,8c-16.1,0-28.4-4.4-36.9-13.3
			c-8.5-8.9-12.8-21.2-12.8-37c0-15.8,4-28.6,12-38.2c8-9.7,19.9-14.5,35.8-14.5c14.3,0,25.5,4.5,33.7,13.6
			c8.2,9,12.3,22.5,12.3,40.3v4.6h-68c0.6,8,2.9,13.9,7,17.9c4.1,4,9.6,6,16.6,6c4.2,0,7.8-1,10.9-2.9c3.1-1.9,5-4.5,5.9-7.7H991.8z
			 M966.4,1556.3c-0.5-6.2-2.6-11.2-6.1-15c-3.5-3.8-8.1-5.7-13.7-5.7c-12.2,0-19.2,6.9-20.9,20.7H966.4z"/>
		<path class="st0" d="M1036.7,1615h-25.8v-132.1h25.8V1615z"/>
		<path class="st0" d="M1151.2,1615h-25.2v-12.3h-0.4c-5.9,9.9-15.4,14.9-28.4,14.9c-12.9,0-23-4.8-30.3-14.5
			c-7.2-9.6-10.9-22.4-10.9-38.2c0-15.5,3.8-27.8,11.4-36.8c7.6-9,17.3-13.6,29.2-13.6c12.6,0,22,5.1,28.4,15.3h0.4v-46.9h25.8V1615
			z M1082.5,1566.8c0,8.6,1.9,15.7,5.7,21.3c3.8,5.6,8.9,8.4,15.5,8.4c7.2,0,12.9-2.6,16.8-7.7c4-5.1,6-11.9,6-20.4
			c0-10.4-1.9-18.3-5.6-23.5s-9.2-7.9-16.5-7.9c-6.9,0-12.3,2.6-16.1,7.9C1084.4,1550,1082.5,1557.4,1082.5,1566.8z"/>
		<path class="st0" d="M1262,1526.1c-3.4-15.2-13.2-22.8-29.3-22.8c-10,0-18,4.1-23.9,12.2c-5.9,8.1-8.9,19.5-8.9,34
			c0,13.6,2.9,24.5,8.6,32.8c5.8,8.2,13.8,12.4,24.2,12.4c15.8,0,25.6-8.3,29.3-24.9h27.6c-2,13.5-7.9,25.1-17.8,34.5
			c-9.9,9.5-23.1,14.2-39.6,14.2c-18.5,0-33.1-6.1-44-18.3c-10.9-12.2-16.4-29.2-16.4-51.1c0-20.9,5.4-37.8,16.3-50.5
			c10.8-12.8,25.7-19.2,44.5-19.2c16.5,0,29.8,4.4,39.9,13.3c10.2,8.9,15.9,20,17.1,33.4H1262z"/>
		<path class="st0" d="M1397.8,1615H1372v-60.8c0-6-1.4-10.5-4.1-13.5c-2.7-3-6.9-4.5-12.6-4.5c-6.4,0-11.4,2.1-14.9,6.4
			c-3.5,4.3-5.3,9.7-5.3,16.3v56.2h-25.8v-132.1h25.8v46.6h0.4c5.9-10,15.4-15,28.7-15c10.2,0,18.3,3,24.5,8.9
			c6.1,6,9.2,13.9,9.2,23.8V1615z"/>
		<path class="st0" d="M1508.1,1586.3c-3,10.1-8.4,17.9-16.1,23.2c-7.7,5.4-16.7,8-27,8c-16.1,0-28.4-4.4-36.9-13.3
			c-8.5-8.9-12.8-21.2-12.8-37c0-15.8,4-28.6,12-38.2c8-9.7,19.9-14.5,35.8-14.5c14.3,0,25.5,4.5,33.7,13.6
			c8.2,9,12.3,22.5,12.3,40.3v4.6h-68c0.6,8,2.9,13.9,7,17.9c4.1,4,9.6,6,16.6,6c4.2,0,7.8-1,10.9-2.9c3.1-1.9,5-4.5,5.9-7.7H1508.1
			z M1482.6,1556.3c-0.5-6.2-2.6-11.2-6.1-15c-3.5-3.8-8.1-5.7-13.7-5.7c-12.2,0-19.2,6.9-20.9,20.7H1482.6z"/>
		<path class="st0" d="M1611.2,1579.3c-1.4,11.4-6,20.7-13.7,27.7c-7.7,7-18.1,10.6-31,10.6c-14.6,0-25.8-4.3-33.6-13
			c-7.8-8.7-11.6-20.6-11.6-35.8c0-18,4.1-31.5,12.3-40.6c8.2-9.1,19.7-13.7,34.6-13.7c11.6,0,21.5,3.2,29.6,9.5s12.6,15.7,13.7,28
			h-26.1c-1-5.5-2.9-9.5-5.8-12c-2.9-2.6-6.6-3.9-11.3-3.9c-6.6,0-11.6,2.6-15.1,7.8c-3.5,5.2-5.3,12.1-5.3,20.6
			c0,12.3,1.8,20.7,5.3,25.1c3.6,4.5,8.4,6.7,14.5,6.7c4.9,0,9-1.7,12.1-5.1c3.2-3.4,4.9-7.4,5.3-12H1611.2z"/>
		<path class="st0" d="M1655.6,1615h-25.8v-132.1h25.8v71.3l32.3-37.2h31.7l-34.6,37.9l35.5,60h-30.9l-23.4-42l-10.7,11.1V1615z"/>
		<path class="st0" d="M1814.8,1586.3c-3,10.1-8.4,17.9-16.1,23.2c-7.7,5.4-16.7,8-27,8c-16.1,0-28.4-4.4-36.9-13.3
			c-8.5-8.9-12.8-21.2-12.8-37c0-15.8,4-28.6,12-38.2c8-9.7,19.9-14.5,35.8-14.5c14.3,0,25.5,4.5,33.7,13.6
			c8.2,9,12.3,22.5,12.3,40.3v4.6h-68c0.6,8,2.9,13.9,7,17.9c4.1,4,9.6,6,16.6,6c4.2,0,7.8-1,10.9-2.9c3.1-1.9,5-4.5,5.9-7.7H1814.8
			z M1789.3,1556.3c-0.5-6.2-2.6-11.2-6.1-15c-3.5-3.8-8.1-5.7-13.7-5.7c-12.2,0-19.2,6.9-20.9,20.7H1789.3z"/>
		<path class="st0" d="M1833.8,1517.1h24.7v17h0.4c3-6.4,6.6-11.3,10.9-14.6c4.3-3.3,9.6-4.9,16-4.9c1.7,0,3.3,0.1,4.9,0.4v26.1
			c-1.2-0.2-3.7-0.4-7.4-0.4c-8,0-14,1.9-17.9,5.8c-3.9,3.9-5.8,9.7-5.8,17.6v50.9h-25.8V1517.1z"/>
	</g>
	<g>
		<path class="st1" d="M908.7,1687.9h8.9l-21.6,58.8h-8.4l-21.4-58.8h8.8L892,1738h0.2L908.7,1687.9z"/>
		<path class="st1" d="M962.2,1733.2c-0.8,4.4-3,8.1-6.5,11c-3.1,2.5-7.2,3.7-12.3,3.8c-6-0.1-10.8-2-14.3-5.9
			c-3.5-3.9-5.3-9.1-5.3-15.7c0-7.5,1.8-13.4,5.4-17.6c3.6-4.2,8.7-6.3,15.1-6.3c5.8,0,10.3,2.2,13.6,6.5c3.3,4.3,4.9,10.5,4.9,18.5
			h-31.3c0,4.5,1,7.9,3.1,10.4s5.2,3.7,9.4,3.7c2.9,0,5.5-0.9,7.6-2.7c2.1-1.8,3.3-3.7,3.5-5.8H962.2z M955.4,1721.8
			c-0.4-4.6-1.6-7.9-3.7-9.9s-4.8-2.9-8.3-2.9c-3.5,0-6.3,1.2-8.5,3.7c-2.1,2.5-3.3,5.5-3.4,9.1H955.4z"/>
		<path class="st1" d="M986.7,1746.7h-7.2v-42.8h6.8v7.1h0.2c3.1-5.6,7.1-8.4,12-8.4c0.8,0,1.4,0.1,1.9,0.2v7.5h-2.7
			c-3.2,0-5.9,1.1-7.9,3.3c-2.1,2.2-3.1,4.9-3.1,8.2V1746.7z"/>
		<path class="st1" d="M1014.4,1696v-8.2h7.2v8.2H1014.4z M1021.6,1746.7h-7.2v-42.8h7.2V1746.7z"/>
		<path class="st1" d="M1049.3,1709.8v36.9h-7.2v-36.9h-5.9v-6h5.9v-7.4c0-3.2,1-5.6,2.9-7.1c2-1.5,4.7-2.3,8.2-2.3
			c1.2,0,2.3,0.1,3.2,0.2v6.5c-0.9-0.1-1.8-0.2-2.9-0.2c-1.6,0-2.7,0.4-3.3,1.2c-0.6,0.8-0.9,2.1-0.9,3.8v5.3h7.2v6H1049.3z"/>
		<path class="st1" d="M1098,1703.8h7.8l-15.3,42c-0.3,0.7-0.5,1.5-0.8,2.1c-2.3,6.2-4.3,10.4-6,12.7s-4.4,3.5-8.2,3.5
			c-2,0-3.6-0.2-4.8-0.6v-6.6c1.4,0.5,2.9,0.7,4.5,0.7c1.8,0,3-0.6,3.9-1.7c0.8-1.1,2-3.8,3.6-8.1l-15.9-44.1h8.1l11.5,34.9h0.2
			L1098,1703.8z"/>
		<path class="st1" d="M1113.8,1738h8.5v8c0,4.1-0.8,7.1-2.5,9.2c-1.7,2.1-3.7,3.2-6,3.5v-3.8c2.9-0.4,4.4-3.1,4.4-8.3h-4.4V1738z"
			/>
		<path class="st1" d="M1172.4,1687.9h23.8c7.7,0,13.7,2.6,18.1,7.9c4.4,5.3,6.5,12.2,6.5,20.6c0,9.1-2.2,16.4-6.5,21.9
			c-4.4,5.5-10.5,8.3-18.4,8.3h-23.5V1687.9z M1180.4,1739.9h15.4c5.3,0,9.5-2,12.5-6.1c3-4.1,4.5-9.7,4.5-16.8
			c0-7-1.5-12.5-4.6-16.4s-7.4-5.9-13.2-5.9h-14.7V1739.9z"/>
		<path class="st1" d="M1236,1725.2c0-6.4,1.8-11.7,5.3-16.1c3.5-4.3,8.4-6.5,14.5-6.5c6.2,0,11.1,2.2,14.6,6.6
			c3.5,4.4,5.3,9.7,5.3,16c0,6.3-1.7,11.6-5.2,16.1c-3.5,4.4-8.4,6.6-14.7,6.6c-6.1,0-10.9-2.1-14.4-6.4
			C1237.8,1737.2,1236,1731.7,1236,1725.2z M1243.4,1725.2c0,4.8,1.1,8.7,3.2,11.8c2.2,3.1,5.2,4.6,9.2,4.6c4.1,0,7.2-1.6,9.4-4.8
			c2.1-3.2,3.2-7.1,3.2-11.6c0-4.5-1.1-8.4-3.2-11.5c-2.1-3.2-5.3-4.7-9.4-4.7c-3.8,0-6.8,1.5-9.1,4.5
			C1244.5,1716.3,1243.4,1720.3,1243.4,1725.2z"/>
		<path class="st1" d="M1327.2,1746.7h-7.2v-26.3c0-4.1-0.7-6.9-2.1-8.7c-1.4-1.7-3.8-2.6-7-2.6c-3.2,0-5.9,1.2-8.1,3.7
			c-2.2,2.5-3.2,6-3.2,10.6v23.3h-7.2v-42.8h6.8v6h0.2c3.4-4.9,7.7-7.3,12.9-7.3c4.8,0,8.6,1.3,11.1,3.9c2.6,2.6,3.9,6.3,3.9,11.1
			V1746.7z"/>
		<path class="st1" d="M1345.1,1687.9h6v20.9h-6V1687.9z"/>
		<path class="st1" d="M1378.2,1709.8v27.9c0,1.1,0.3,1.9,0.9,2.5s1.7,0.9,3.2,0.9h2.8v5.6c-2.6,0.4-4.4,0.6-5.4,0.6
			c-3,0-5.2-0.7-6.6-2.2c-1.4-1.4-2.1-3.8-2.1-7v-28.3h-5.8v-6h5.8v-12h7.2v12h6.9v6H1378.2z"/>
		<path class="st1" d="M1439.9,1694.9h-19.8v-7h47.7v7h-20v51.7h-8V1694.9z"/>
		<path class="st1" d="M1479.6,1746.7h-7.2v-42.8h6.8v7.1h0.2c3.1-5.6,7.1-8.4,12-8.4c0.8,0,1.4,0.1,1.9,0.2v7.5h-2.7
			c-3.2,0-5.9,1.1-7.9,3.3s-3.1,4.9-3.1,8.2V1746.7z"/>
		<path class="st1" d="M1506.9,1703.8h7.2v28.4c0,3.1,0.7,5.5,2.1,7.1c1.4,1.6,3.5,2.3,6.1,2.3c3.7,0,6.6-1.3,8.7-3.9
			c2.1-2.6,3.1-6.1,3.1-10.3v-23.6h7.2v42.8h-6.8v-6.2l-0.2-0.2c-2.7,5.1-7.3,7.6-13.6,7.6c-4.1,0-7.5-1.1-10-3.4
			c-2.6-2.2-3.9-5.5-3.9-9.9V1703.8z"/>
		<path class="st1" d="M1584.5,1716c-0.1-2.6-1-4.4-2.7-5.5c-1.7-1.1-4.2-1.7-7.4-1.7c-2.3,0-4.4,0.5-6,1.6c-1.7,1-2.5,2.5-2.5,4.5
			c0,1.5,0.5,2.7,1.5,3.4s3.1,1.5,6.4,2.3l7.1,1.8c4.3,1.1,7.4,2.5,9.3,4.2c1.9,1.7,2.8,4.1,2.8,7.1c0,4.2-1.5,7.6-4.6,10.3
			c-3.1,2.6-7.2,3.9-12.3,3.9c-6,0-10.5-1.2-13.6-3.7c-3.1-2.5-4.6-6.2-4.7-11.3h7c0.1,3,1.1,5.2,2.9,6.6s4.6,2.2,8.3,2.2
			c3,0,5.4-0.6,7.2-1.8c1.8-1.2,2.7-2.9,2.7-5c0-1.5-0.6-2.7-1.7-3.6c-1.1-0.9-3.4-1.7-6.8-2.5l-8.4-2c-3.4-0.9-5.9-2.1-7.5-3.8
			c-1.6-1.7-2.4-3.9-2.4-6.6c0-4.2,1.5-7.5,4.5-10c3-2.5,6.9-3.7,11.8-3.7c5.2,0,9.1,1.3,11.9,3.8s4.2,5.7,4.4,9.7H1584.5z"/>
		<path class="st1" d="M1618.1,1709.8v27.9c0,1.1,0.3,1.9,0.9,2.5s1.7,0.9,3.2,0.9h2.8v5.6c-2.6,0.4-4.4,0.6-5.4,0.6
			c-3,0-5.2-0.7-6.6-2.2c-1.4-1.4-2.1-3.8-2.1-7v-28.3h-5.8v-6h5.8v-12h7.2v12h6.9v6H1618.1z"/>
	</g>
	<g>
		<linearGradient id="SVGID_1_" gradientUnits="userSpaceOnUse" x1="1324.9377" y1="1235.9655" x2="1324.9377" y2="1264.3734">
			<stop  offset="0" style="stop-color:#00BBFE"/>
			<stop  offset="1" style="stop-color:#0080FF"/>
		</linearGradient>
		<path class="st2" d="M1336.1,1259.6c2.4,0.9,4.7,1.9,7.1,2.8c0,0,0,0,0,0C1340.8,1261.5,1338.5,1260.6,1336.1,1259.6
			c-0.3-0.1-0.6-0.2-0.9-0.3c-2.3-0.9-4.5-1.9-6.8-2.8c-2.5-1-4.9-2.1-7.4-3.1c-2.4-1.1-4.9-2.2-7.3-3.3c-1.8-0.8-3.6-1.7-5.4-2.5
			c-0.5-0.2-1.1-0.5-1.6-0.8v0c0.6,0.3,1.1,0.5,1.6,0.8c1.8,0.9,3.6,1.7,5.4,2.5c2.4,1.1,4.9,2.2,7.3,3.3c2.4,1,4.9,2.1,7.4,3.1
			c2.3,0.9,4.5,1.9,6.8,2.8C1335.5,1259.3,1335.8,1259.5,1336.1,1259.6z"/>
		<g>
			
				<linearGradient id="SVGID_00000158013749405691266260000015028413002629663107_" gradientUnits="userSpaceOnUse" x1="1176.3573" y1="689.1089" x2="1176.3573" y2="1305.2664">
				<stop  offset="0" style="stop-color:#00BBFE"/>
				<stop  offset="1" style="stop-color:#0080FF"/>
			</linearGradient>
			<path style="fill:url(#SVGID_00000158013749405691266260000015028413002629663107_);" d="M1343.2,1262.4
				C1343.2,1262.4,1343.2,1262.4,1343.2,1262.4c-36.5,26.6-75.9,49.3-117.8,67.6c-40-22-77.3-48.3-111.3-78.2
				c-28.1-24.7-54-51.9-77.3-81.3c-9.6-12.1-18.7-24.5-27.4-37.3v0c1.6-1.7,3.2-3.3,4.9-5c8.1-8.2,16.8-16,25.8-23.4
				c4.5-3.7,9.1-7.2,13.8-10.6c0,0,0,0,0,0c4.7-3.4,9.5-6.7,14.4-9.9c2.9-1.9,5.9-3.8,8.9-5.6c3-1.8,6-3.5,9.1-5.3
				c2.1-1.1,4.1-2.2,6.2-3.3c2.1-1.1,4.2-2.2,6.3-3.2v0h0c10.2,15.4,21.2,30.1,33.1,44.2c0,0,0,0,0,0c1.9,2.3,3.8,4.6,5.8,6.8
				c0.1,0,0.1,0.1,0.1,0.1c4,4.6,8,9.1,12.2,13.6c0.2,0.2,0.5,0.5,0.7,0.7c1.5,1.6,3,3.3,4.6,4.9c0.2,0.3,0.5,0.6,0.8,0.8
				c0.4,0.4,0.7,0.7,1.1,1.1c1,1,2,2.1,3,3.1c0,0.1,0.1,0.1,0.1,0.1c1.5,1.5,3,3,4.5,4.5c0.6,0.6,1.2,1.2,1.7,1.7
				c1.4,1.4,2.8,2.8,4.2,4.1c0.5,0.6,1,1,1.6,1.5c0.5,0.5,1,1,1.6,1.5c0.3,0.3,0.6,0.6,0.9,0.9c1.6,1.5,3.2,3,4.8,4.4
				c0.8,0.7,1.5,1.4,2.3,2.1c0.9,0.9,1.9,1.7,2.8,2.5c1,1,2,1.9,3.1,2.8c2.5,2.2,5.1,4.5,7.7,6.6c1,0.9,2.1,1.8,3.2,2.6
				c1.1,0.9,2.1,1.8,3.2,2.6c0.4,0.3,0.8,0.7,1.2,1c0.6,0.5,1.2,1,1.7,1.4c1.5,1.2,2.9,2.4,4.4,3.5c0.2,0.1,0.3,0.3,0.6,0.4
				c1.6,1.3,3.3,2.6,4.9,3.8c3,2.4,6.1,4.7,9.2,6.9c1.7,1.3,3.5,2.6,5.3,3.8c0.8,0.6,1.6,1.1,2.4,1.7c0,0,0,0,0,0
				c0.3,0.2,0.6,0.4,0.9,0.6c0.3,0.2,0.6,0.4,0.9,0.6c2.2,1.5,4.3,3,6.5,4.5c1.9,1.3,3.9,2.6,5.9,3.9c0.5,0.3,1.1,0.7,1.6,1
				c2.5,1.7,5.1,3.3,7.6,4.9c0.1,0.1,0.1,0.1,0.2,0.1c2.7,1.7,5.5,3.4,8.2,5.1c1.9,1.1,3.8,2.2,5.7,3.4c0.6,0.3,1.1,0.7,1.7,1
				c1.1,0.6,2.2,1.3,3.3,1.9c0.8,0.5,1.7,0.9,2.5,1.4c0.8,0.5,1.7,0.9,2.5,1.4c1.7,1,3.5,1.9,5.2,2.9c1.8,1,3.6,1.9,5.5,2.9
				c1.9,1,3.9,2,5.8,3c1.5,0.8,3,1.5,4.5,2.2c1.8,0.9,3.6,1.8,5.4,2.6c0.1,0.1,0.3,0.1,0.4,0.2c0.4,0.2,0.8,0.4,1.2,0.6
				c0.6,0.3,1.1,0.5,1.6,0.8c1.8,0.9,3.6,1.7,5.4,2.5c2.4,1.1,4.9,2.2,7.3,3.3c2.4,1,4.9,2.1,7.4,3.1c2.3,0.9,4.5,1.9,6.8,2.8
				c0.3,0.1,0.6,0.2,0.9,0.4C1338.5,1260.5,1340.8,1261.5,1343.2,1262.4z"/>
			
				<linearGradient id="SVGID_00000001631086807949346350000015167794104671950466_" gradientUnits="userSpaceOnUse" x1="1251.2948" y1="1186.5734" x2="1251.2948" y2="1230.8221">
				<stop  offset="0" style="stop-color:#00BBFE"/>
				<stop  offset="1" style="stop-color:#0080FF"/>
			</linearGradient>
			<path style="fill:url(#SVGID_00000001631086807949346350000015167794104671950466_);" d="M1268.8,1226.8c0.6,0.3,1.1,0.7,1.7,1
				C1269.9,1227.5,1269.3,1227.1,1268.8,1226.8c-1.9-1.1-3.8-2.2-5.7-3.3c-2.8-1.7-5.5-3.3-8.2-5.1c-0.1-0.1-0.1-0.1-0.2-0.1
				c-2.5-1.6-5.1-3.2-7.6-4.9c-0.5-0.3-1.1-0.7-1.6-1c-2-1.3-3.9-2.6-5.9-3.9c-2.2-1.5-4.3-3-6.5-4.5c-0.3-0.2-0.6-0.4-0.9-0.6
				c0.3,0.2,0.6,0.4,0.9,0.6c2.2,1.5,4.3,3,6.5,4.5c1.9,1.3,3.9,2.6,5.9,3.9c0.5,0.3,1.1,0.7,1.6,1c2.5,1.7,5.1,3.3,7.6,4.9
				c0.1,0.1,0.1,0.1,0.2,0.1c2.7,1.7,5.5,3.4,8.2,5.1C1265,1224.5,1266.9,1225.6,1268.8,1226.8z"/>
			
				<linearGradient id="SVGID_00000041295978033365638040000015273128315987389864_" gradientUnits="userSpaceOnUse" x1="1291.4335" y1="1220.2133" x2="1291.4335" y2="1248.7269">
				<stop  offset="0" style="stop-color:#00BBFE"/>
				<stop  offset="1" style="stop-color:#0080FF"/>
			</linearGradient>
			<path style="fill:url(#SVGID_00000041295978033365638040000015273128315987389864_);" d="M1305.5,1246.2c0.4,0.2,0.8,0.4,1.2,0.6
				C1306.2,1246.6,1305.9,1246.4,1305.5,1246.2c-0.1,0-0.3-0.1-0.4-0.1c-1.8-0.9-3.6-1.7-5.4-2.6c-1.5-0.7-3-1.5-4.5-2.2
				c-1.9-1-3.9-1.9-5.8-3c-1.8-1-3.7-1.9-5.5-2.9c-1.7-0.9-3.5-1.9-5.2-2.9c-0.8-0.5-1.7-0.9-2.5-1.4c0.8,0.5,1.7,0.9,2.5,1.4
				c1.7,1,3.5,1.9,5.2,2.9c1.8,1,3.6,1.9,5.5,2.9c1.9,1,3.9,2,5.8,3c1.5,0.8,3,1.5,4.5,2.2c1.8,0.9,3.6,1.8,5.4,2.6
				C1305.2,1246,1305.3,1246.1,1305.5,1246.2z"/>
			
				<linearGradient id="SVGID_00000069380733750315932450000004146511652272360627_" gradientUnits="userSpaceOnUse" x1="1304.4829" y1="703.508" x2="1304.4829" y2="1281.7523">
				<stop  offset="0" style="stop-color:#00BBFE"/>
				<stop  offset="1" style="stop-color:#0080FF"/>
			</linearGradient>
			<path style="fill:url(#SVGID_00000069380733750315932450000004146511652272360627_);" d="M1534.6,1036.6
				c-16.9,33.9-36.9,66-59.4,96c-9.2,12.2-18.8,24.1-28.9,35.6c-9.4,10.7-19.1,21.2-29.2,31.2c-3.2,3.2-6.4,6.3-9.6,9.4
				c-2.6,2.5-5.2,5-7.9,7.4c-2.5,2.3-5,4.6-7.6,6.9c-3.6,3.2-7.2,6.4-10.9,9.5c-2.3,2-4.6,3.9-7,5.8c-1.3,1-2.5,2.1-3.8,3.1
				l-16.8-6.3c-2-0.8-4-1.6-6.1-2.4c-0.6-0.3-1.2-0.5-1.7-0.7l-6.2-2.5c-2.4-1-4.7-2-6.8-2.9c-2.3-1-4.6-2-7-3.1
				c-1.6-0.7-3.2-1.5-4.8-2.2l-0.8-0.4c0,0-2.3-1.1-2.6-1.3c-1.6-0.8-3.2-1.6-4.8-2.4l-0.4-0.2c-1.2-0.6-2.3-1.1-3.5-1.7l-0.6-0.3
				c-1.7-0.9-3.5-1.7-5.3-2.7c0,0-3.7-1.9-5.3-2.8s-3-1.6-4.6-2.5l-0.4-0.2c-3.3-1.8-6.3-3.5-9-5.1c0,0-4.5-2.6-5.6-3.3
				c-2.5-1.5-5-3.1-7.5-4.6l-0.6-0.4c-2.3-1.5-4.7-2.9-6.8-4.4c-0.5-0.3-1-0.7-1.6-1c0,0-1.6-1-3.1-2.1c2.9-1.9,5.7-3.8,8.6-5.8
				c0.2-0.1,0.4-0.3,0.6-0.4c2.5-1.8,5-3.5,7.5-5.3c0.3-0.2,0.5-0.4,0.8-0.5c2.6-1.9,5.2-3.8,7.8-5.8c2.3-1.7,4.6-3.5,6.9-5.3
				c3.2-2.5,6.4-5,9.5-7.6c2.4-1.9,4.7-3.9,7.1-5.8c0.3-0.3,0.6-0.5,0.8-0.7c2.6-2.2,5.1-4.4,7.6-6.6c2.6-2.3,5.1-4.6,7.7-6.9
				c11.3-10.4,22.2-21.3,32.5-32.6c10.5-11.6,20.5-23.6,29.9-36.1c-43.1-21.5-91.7-33.5-143-33.5c-34.7,0-68.2,5.5-99.5,15.8
				c-1.2,0.3-2.4,0.8-3.6,1.2c-4.6,1.5-9.2,3.2-13.7,5c0,0,0,0-0.1,0h0l-2.1-3.2l-0.6-0.9c-0.7-1.1-1.5-2.2-2.2-3.3
				c-0.5-0.8-1-1.6-1.5-2.4c-1.5-2.3-2.9-4.5-4.2-6.7l-0.2-0.3c-0.7-1.1-1.4-2.2-2-3.2c-1.3-2.2-2.6-4.4-4-6.8c-1-1.6-1.9-3.3-3-5.1
				c-0.1-0.2-0.2-0.4-0.3-0.6l-2.2-3.8l-0.3-0.6c-0.2-0.3-0.4-0.8-0.6-1.1l-0.2-0.5l-0.3-0.5c-0.7-1.3-1.4-2.6-2.1-3.9l-0.1-0.3
				c-2.6-4.8-5.2-9.7-7.5-14.6l-0.2-0.3c-0.6-1.2-1.1-2.4-1.7-3.5c0,0,0,0,0-0.1c0,0-0.7-1.4-1.3-2.7c-0.3-0.7-0.6-1.3-0.8-1.7
				c-0.1-0.1-0.1-0.2-0.1-0.2c-0.2-0.4-0.4-0.9-0.6-1.3c-0.7-1.5-1.4-2.9-2-4.4l-0.2-0.4c-1.2-2.6-2.4-5.2-3.5-7.9
				c-0.8-1.8-1.5-3.6-2.3-5.4c-0.1-0.2-0.2-0.4-0.3-0.7c-0.3-0.7-0.6-1.4-0.9-2.1c-0.4-1.1-0.9-2.2-1.3-3.3c-0.6-1.5-1.2-3-1.8-4.4
				c-0.2-0.6-0.4-1.1-0.6-1.7c0,0,0-0.1-0.1-0.1c41.3-17.5,86-28.8,132.7-32.6c3.1-0.3,6.3-0.5,9.4-0.7c8.6-0.5,17.3-0.8,26.1-0.8
				c72.1,0,140,17.6,199.7,48.9C1475.9,989.3,1506.9,1011.1,1534.6,1036.6z"/>
			
				<linearGradient id="SVGID_00000081619854818026160540000013947926294985469845_" gradientUnits="userSpaceOnUse" x1="1319.8604" y1="689.1252" x2="1319.8604" y2="1305.2819">
				<stop  offset="0" style="stop-color:#00BBFE"/>
				<stop  offset="1" style="stop-color:#0080FF"/>
			</linearGradient>
			<path style="fill:url(#SVGID_00000081619854818026160540000013947926294985469845_);" d="M1597.5,816.2
				c-3.9,41.9-11.9,82.6-23.7,121.7c-4,13.3-8.4,26.3-13.2,39.2c-29.2-24.6-61.3-45.9-95.7-63.3c4.3-13.4,8-27.1,11.3-41
				c-70-35.9-149.4-56.1-233.5-56.1c-14.9,0-29.7,0.6-44.4,1.9c-4.9,0.4-9.7,0.9-14.5,1.5c0,0,0,0-0.1,0c-4.8,0.6-9.6,1.2-14.4,1.9
				c-2.4,0.3-4.9,0.7-7.2,1.1c-7.1,1.1-14.2,2.4-21.3,3.8c-7.1,1.4-14.1,3-21,4.7c-4.6,1.1-9.2,2.3-13.8,3.6
				c-2.3,0.6-4.6,1.3-6.9,1.9c-2.2,0.6-4.4,1.3-6.6,1.9c-15.2,4.7-30.2,10.1-44.9,16.1h0V855c-0.1-0.3-0.1-0.6-0.1-0.9l0-0.2l0-0.2
				c-0.1-0.7-0.2-1.4-0.3-2.1c-0.3-1.8-0.5-3.6-0.8-5.4c-0.1-0.8-0.2-1.5-0.3-2.3l-0.1-0.7c-0.8-6.9-1.6-13.9-2.1-20.9
				c-0.1-1-0.2-1.9-0.2-2.9c-0.2-3-0.4-6-0.6-9c-0.1-1.2-0.1-2.4-0.2-3.6c-0.2-4.5-0.4-8.9-0.5-13.4V793c0-0.8,0-1.7-0.1-2.6
				c0-2.5-0.1-4.9-0.1-7.4c0-2.7,0-5.4,0.1-8.2c0.1-5.4,0.3-10.9,0.6-16.3c0.1-2.7,0.3-5.4,0.5-8.1l0.8-12.8
				c62.3-20.9,129.1-32.2,198.5-32.2c87.5,0,170.9,18,246.4,50.6C1527.3,772.5,1563.6,792.7,1597.5,816.2z"/>
			
				<linearGradient id="SVGID_00000108293513952345304030000008206197764076917686_" gradientUnits="userSpaceOnUse" x1="1075.6697" y1="956.0807" x2="1075.6697" y2="965.9171">
				<stop  offset="0" style="stop-color:#00BBFE"/>
				<stop  offset="1" style="stop-color:#0080FF"/>
			</linearGradient>
			<path style="fill:url(#SVGID_00000108293513952345304030000008206197764076917686_);" d="M1075.1,958.7c-0.2-0.6-0.4-1.1-0.6-1.7
				c0.8,2,1.6,4.1,2.4,6.1C1076.2,961.7,1075.7,960.2,1075.1,958.7z"/>
			
				<linearGradient id="SVGID_00000118390532504163877680000002911606162432149651_" gradientUnits="userSpaceOnUse" x1="1077.983" y1="962.3325" x2="1077.983" y2="971.0035">
				<stop  offset="0" style="stop-color:#00BBFE"/>
				<stop  offset="1" style="stop-color:#0080FF"/>
			</linearGradient>
			<path style="fill:url(#SVGID_00000118390532504163877680000002911606162432149651_);" d="M1078.2,966.5c-0.5-1.1-0.9-2.2-1.3-3.3
				c0.7,1.8,1.5,3.6,2.2,5.4C1078.8,967.9,1078.5,967.2,1078.2,966.5z"/>
			
				<linearGradient id="SVGID_00000144326137383140321310000012644807013341241750_" gradientUnits="userSpaceOnUse" x1="1086.2458" y1="981.7761" x2="1086.2458" y2="989.468">
				<stop  offset="0" style="stop-color:#00BBFE"/>
				<stop  offset="1" style="stop-color:#0080FF"/>
			</linearGradient>
			<path style="fill:url(#SVGID_00000144326137383140321310000012644807013341241750_);" d="M1085.3,982.9l-0.2-0.4
				c0.7,1.6,1.5,3.2,2.2,4.8C1086.7,985.8,1086,984.4,1085.3,982.9z"/>
			
				<linearGradient id="SVGID_00000041261727839360803860000005442238371275569048_" gradientUnits="userSpaceOnUse" x1="1087.7153" y1="987.0765" x2="1087.7153" y2="989.5941">
				<stop  offset="0" style="stop-color:#00BBFE"/>
				<stop  offset="1" style="stop-color:#0080FF"/>
			</linearGradient>
			<path style="fill:url(#SVGID_00000041261727839360803860000005442238371275569048_);" d="M1088,988.7c-0.2-0.4-0.4-0.9-0.6-1.3
				c0.2,0.5,0.5,1,0.7,1.6C1088,988.8,1088,988.7,1088,988.7z"/>
			
				<linearGradient id="SVGID_00000040538071301450904700000009730520660477456787_" gradientUnits="userSpaceOnUse" x1="1088.4863" y1="988.6253" x2="1088.4863" y2="991.3757">
				<stop  offset="0" style="stop-color:#00BBFE"/>
				<stop  offset="1" style="stop-color:#0080FF"/>
			</linearGradient>
			<path style="fill:url(#SVGID_00000040538071301450904700000009730520660477456787_);" d="M1088.9,990.6c-0.3-0.7-0.6-1.3-0.8-1.7
				C1088.4,989.5,1088.6,990,1088.9,990.6z"/>
			
				<linearGradient id="SVGID_00000064352175740449453670000014481505285982574223_" gradientUnits="userSpaceOnUse" x1="1091.178" y1="992.8021" x2="1091.178" y2="999.0025">
				<stop  offset="0" style="stop-color:#00BBFE"/>
				<stop  offset="1" style="stop-color:#0080FF"/>
			</linearGradient>
			<path style="fill:url(#SVGID_00000064352175740449453670000014481505285982574223_);" d="M1091.9,997c-0.6-1.2-1.1-2.4-1.7-3.5
				c0.6,1.3,1.3,2.6,1.9,3.9L1091.9,997z"/>
			
				<linearGradient id="SVGID_00000024701147975380912920000015525091228266156164_" gradientUnits="userSpaceOnUse" x1="1000.6448" y1="689.1295" x2="1000.6448" y2="1305.2401">
				<stop  offset="0" style="stop-color:#00BBFE"/>
				<stop  offset="1" style="stop-color:#0080FF"/>
			</linearGradient>
			<path style="fill:url(#SVGID_00000024701147975380912920000015525091228266156164_);" d="M1098.8,1066.9L1098.8,1066.9
				c-2.1,1.1-4.2,2.2-6.3,3.2c-2.1,1.1-4.1,2.2-6.2,3.3c-3.1,1.7-6.1,3.5-9.1,5.3c-3,1.8-6,3.7-8.9,5.6c-4.9,3.2-9.7,6.5-14.4,9.9
				c0,0,0,0,0,0c-4.7,3.4-9.3,7-13.8,10.6c-9,7.3-17.6,15.1-25.8,23.4c-1.6,1.7-3.2,3.3-4.9,5c-5.6-8.2-11-16.6-16.2-25.1
				c-14.6-23.9-27.7-48.9-39-74.7c-8.8-20-16.5-40.6-23.1-61.6c-4.2-13.4-8.1-26.9-11.4-40.7c-9.8-40.2-15.7-81.9-17.2-124.8
				c35-22.8,72.4-42.2,111.8-57.7c-0.8,11.4-1.1,22.8-1.1,34.4c0,3.6,0,7.2,0.1,10.7c0.1,3,0.1,6.1,0.3,9.1c0.1,1.6,0.1,3.3,0.2,4.9
				c0.1,2.4,0.2,4.7,0.3,7l0.1,1c0.2,3,0.4,5.9,0.6,8.9c0.1,0.8,0.1,1.7,0.2,2.6c0.2,2.4,0.4,4.7,0.6,7c0.1,1.2,0.3,2.4,0.4,3.7
				c0.3,2.6,0.6,5.1,0.9,7.6c0.1,0.5,0.1,1,0.2,1.6c0.3,2.7,0.7,5.4,1.1,8.1c0.1,1,0.3,2.1,0.5,3.1c0.4,3,0.9,5.9,1.4,8.8
				c5.8,35.4,15.3,69.5,28,102.1c1.1,2.8,2.2,5.6,3.4,8.4c1.2,2.9,2.4,5.7,3.6,8.5c1.2,2.8,2.5,5.6,3.8,8.4c1,2.2,1.9,4.3,3,6.5
				c0.5,1,1,2.1,1.5,3.1c1,2,1.9,4,2.9,5.9c2.6,5.3,5.3,10.4,8.1,15.6c0.8,1.5,1.7,3.1,2.5,4.7c0.4,0.8,0.8,1.6,1.3,2.3
				c0.9,1.7,1.9,3.4,2.9,5c0.8,1.5,1.7,3,2.6,4.4c1.6,2.7,3.2,5.4,4.8,8c0.8,1.2,1.5,2.4,2.3,3.6
				C1093.1,1058.2,1095.9,1062.6,1098.8,1066.9z"/>
			
				<linearGradient id="SVGID_00000134970184318828954850000010197681400778796220_" gradientUnits="userSpaceOnUse" x1="1100.9253" y1="1011.1277" x2="1100.9253" y2="1018.5866">
				<stop  offset="0" style="stop-color:#00BBFE"/>
				<stop  offset="1" style="stop-color:#0080FF"/>
			</linearGradient>
			<path style="fill:url(#SVGID_00000134970184318828954850000010197681400778796220_);" d="M1099.7,1011.8c0.8,1.6,1.7,3.1,2.5,4.7
				l-0.3-0.5c-0.7-1.3-1.4-2.6-2.1-3.9L1099.7,1011.8z"/>
			
				<linearGradient id="SVGID_00000037686304238287089080000001291950531492257698_" gradientUnits="userSpaceOnUse" x1="1103.8784" y1="1015.576" x2="1103.8784" y2="1025.1794">
				<stop  offset="0" style="stop-color:#00BBFE"/>
				<stop  offset="1" style="stop-color:#0080FF"/>
			</linearGradient>
			<path style="fill:url(#SVGID_00000037686304238287089080000001291950531492257698_);" d="M1102.2,1016.5c1.1,2,2.2,4,3.4,6
				c-0.8-1.3-1.5-2.5-2.2-3.8l-0.3-0.6c-0.2-0.3-0.4-0.8-0.6-1.1L1102.2,1016.5z"/>
			
				<linearGradient id="SVGID_00000096737646292350299740000000669723462139910076_" gradientUnits="userSpaceOnUse" x1="1112.4471" y1="1018.9908" x2="1112.4471" y2="1055.3066">
				<stop  offset="0" style="stop-color:#00BBFE"/>
				<stop  offset="1" style="stop-color:#0080FF"/>
			</linearGradient>
			<path style="fill:url(#SVGID_00000096737646292350299740000000669723462139910076_);" d="M1105.6,1022.5
				c4.4,7.7,9,15.2,13.8,22.7c-1.5-2.3-2.9-4.5-4.2-6.7l-0.2-0.3c-0.7-1.1-1.4-2.2-2-3.2c-2.2-3.6-4.5-7.4-7-11.9
				C1105.8,1022.9,1105.7,1022.7,1105.6,1022.5z"/>
			
				<linearGradient id="SVGID_00000057147097118741342670000008421119784032846756_" gradientUnits="userSpaceOnUse" x1="1124.7115" y1="1051.2101" x2="1124.7115" y2="1056.3849">
				<stop  offset="0" style="stop-color:#00BBFE"/>
				<stop  offset="1" style="stop-color:#0080FF"/>
			</linearGradient>
			<polygon style="fill:url(#SVGID_00000057147097118741342670000008421119784032846756_);" points="1125.8,1054.9 1125.8,1054.9 
				1123.6,1051.7 			"/>
			
				<linearGradient id="SVGID_00000038404026295606683780000007491723679811930512_" gradientUnits="userSpaceOnUse" x1="1000.6448" y1="689.1295" x2="1000.6448" y2="1305.2401">
				<stop  offset="0" style="stop-color:#00BBFE"/>
				<stop  offset="1" style="stop-color:#0080FF"/>
			</linearGradient>
			<path style="fill:url(#SVGID_00000038404026295606683780000007491723679811930512_);" d="M1098.8,1066.9L1098.8,1066.9
				c-2.1,1.1-4.2,2.2-6.3,3.2c-2.1,1.1-4.1,2.2-6.2,3.3c-3.1,1.7-6.1,3.5-9.1,5.3c-3,1.8-6,3.7-8.9,5.6c-4.9,3.2-9.7,6.5-14.4,9.9
				c0,0,0,0,0,0c-4.7,3.4-9.3,7-13.8,10.6c-9,7.3-17.6,15.1-25.8,23.4c-1.6,1.7-3.2,3.3-4.9,5c-5.6-8.2-11-16.6-16.2-25.1
				c-14.6-23.9-27.7-48.9-39-74.7c-8.8-20-16.5-40.6-23.1-61.6c-4.2-13.4-8.1-26.9-11.4-40.7c-9.8-40.2-15.7-81.9-17.2-124.8
				c35-22.8,72.4-42.2,111.8-57.7c-0.8,11.4-1.1,22.8-1.1,34.4c0,3.6,0,7.2,0.1,10.7c0.1,3,0.1,6.1,0.3,9.1c0.1,1.6,0.1,3.3,0.2,4.9
				c0.1,2.4,0.2,4.7,0.3,7l0.1,1c0.2,3,0.4,5.9,0.6,8.9c0.1,0.8,0.1,1.7,0.2,2.6c0.2,2.4,0.4,4.7,0.6,7c0.1,1.2,0.3,2.4,0.4,3.7
				c0.3,2.6,0.6,5.1,0.9,7.6c0.1,0.5,0.1,1,0.2,1.6c0.3,2.7,0.7,5.4,1.1,8.1c0.1,1,0.3,2.1,0.5,3.1c0.4,3,0.9,5.9,1.4,8.8
				c5.8,35.4,15.3,69.5,28,102.1c1.1,2.8,2.2,5.6,3.4,8.4c1.2,2.9,2.4,5.7,3.6,8.5c1.2,2.8,2.5,5.6,3.8,8.4c1,2.2,1.9,4.3,3,6.5
				c0.5,1,1,2.1,1.5,3.1c1,2,1.9,4,2.9,5.9c2.6,5.3,5.3,10.4,8.1,15.6c0.8,1.5,1.7,3.1,2.5,4.7c0.4,0.8,0.8,1.6,1.3,2.3
				c0.9,1.7,1.9,3.4,2.9,5c0.8,1.5,1.7,3,2.6,4.4c1.6,2.7,3.2,5.4,4.8,8c0.8,1.2,1.5,2.4,2.3,3.6
				C1093.1,1058.2,1095.9,1062.6,1098.8,1066.9z"/>
			
				<linearGradient id="SVGID_00000017494463524641078810000003487682718805170608_" gradientUnits="userSpaceOnUse" x1="1124.7406" y1="1047.0713" x2="1124.7406" y2="1054.6364">
				<stop  offset="0" style="stop-color:#00BBFE"/>
				<stop  offset="1" style="stop-color:#0080FF"/>
			</linearGradient>
			<path style="fill:url(#SVGID_00000017494463524641078810000003487682718805170608_);" d="M1125.8,1054.9
				C1125.8,1054.9,1125.8,1054.9,1125.8,1054.9L1125.8,1054.9l-2.2-3.2C1124.4,1052.8,1125.1,1053.8,1125.8,1054.9z"/>
			
				<linearGradient id="SVGID_00000092439464842465714980000005018382753813768332_" gradientUnits="userSpaceOnUse" x1="1176.3573" y1="689.1089" x2="1176.3573" y2="1305.2664">
				<stop  offset="0" style="stop-color:#00BBFE"/>
				<stop  offset="1" style="stop-color:#0080FF"/>
			</linearGradient>
			<path style="fill:url(#SVGID_00000092439464842465714980000005018382753813768332_);" d="M1343.2,1262.4
				C1343.2,1262.4,1343.2,1262.4,1343.2,1262.4c-36.5,26.6-75.9,49.3-117.8,67.6c-40-22-77.3-48.3-111.3-78.2
				c-28.1-24.7-54-51.9-77.3-81.3c-9.6-12.1-18.7-24.5-27.4-37.3v0c1.6-1.7,3.2-3.3,4.9-5c8.1-8.2,16.8-16,25.8-23.4
				c4.5-3.7,9.1-7.2,13.8-10.6c0,0,0,0,0,0c4.7-3.4,9.5-6.7,14.4-9.9c2.9-1.9,5.9-3.8,8.9-5.6c3-1.8,6-3.5,9.1-5.3
				c2.1-1.1,4.1-2.2,6.2-3.3c2.1-1.1,4.2-2.2,6.3-3.2v0h0c10.2,15.4,21.2,30.1,33.1,44.2c0,0,0,0,0,0c1.9,2.3,3.8,4.6,5.8,6.8
				c0.1,0,0.1,0.1,0.1,0.1c4,4.6,8,9.1,12.2,13.6c0.2,0.2,0.5,0.5,0.7,0.7c1.5,1.6,3,3.3,4.6,4.9c0.2,0.3,0.5,0.6,0.8,0.8
				c0.4,0.4,0.7,0.7,1.1,1.1c1,1,2,2.1,3,3.1c0,0.1,0.1,0.1,0.1,0.1c1.5,1.5,3,3,4.5,4.5c0.6,0.6,1.2,1.2,1.7,1.7
				c1.4,1.4,2.8,2.8,4.2,4.1c0.5,0.6,1,1,1.6,1.5c0.5,0.5,1,1,1.6,1.5c0.3,0.3,0.6,0.6,0.9,0.9c1.6,1.5,3.2,3,4.8,4.4
				c0.8,0.7,1.5,1.4,2.3,2.1c0.9,0.9,1.9,1.7,2.8,2.5c1,1,2,1.9,3.1,2.8c2.5,2.2,5.1,4.5,7.7,6.6c1,0.9,2.1,1.8,3.2,2.6
				c1.1,0.9,2.1,1.8,3.2,2.6c0.4,0.3,0.8,0.7,1.2,1c0.6,0.5,1.2,1,1.7,1.4c1.5,1.2,2.9,2.4,4.4,3.5c0.2,0.1,0.3,0.3,0.6,0.4
				c1.6,1.3,3.3,2.6,4.9,3.8c3,2.4,6.1,4.7,9.2,6.9c1.7,1.3,3.5,2.6,5.3,3.8c0.8,0.6,1.6,1.1,2.4,1.7c0,0,0,0,0,0
				c0.3,0.2,0.6,0.4,0.9,0.6c0.3,0.2,0.6,0.4,0.9,0.6c2.2,1.5,4.3,3,6.5,4.5c1.9,1.3,3.9,2.6,5.9,3.9c0.5,0.3,1.1,0.7,1.6,1
				c2.5,1.7,5.1,3.3,7.6,4.9c0.1,0.1,0.1,0.1,0.2,0.1c2.7,1.7,5.5,3.4,8.2,5.1c1.9,1.1,3.8,2.2,5.7,3.4c0.6,0.3,1.1,0.7,1.7,1
				c1.1,0.6,2.2,1.3,3.3,1.9c0.8,0.5,1.7,0.9,2.5,1.4c0.8,0.5,1.7,0.9,2.5,1.4c1.7,1,3.5,1.9,5.2,2.9c1.8,1,3.6,1.9,5.5,2.9
				c1.9,1,3.9,2,5.8,3c1.5,0.8,3,1.5,4.5,2.2c1.8,0.9,3.6,1.8,5.4,2.6c0.1,0.1,0.3,0.1,0.4,0.2c0.4,0.2,0.8,0.4,1.2,0.6
				c0.6,0.3,1.1,0.5,1.6,0.8c1.8,0.9,3.6,1.7,5.4,2.5c2.4,1.1,4.9,2.2,7.3,3.3c2.4,1,4.9,2.1,7.4,3.1c2.3,0.9,4.5,1.9,6.8,2.8
				c0.3,0.1,0.6,0.2,0.9,0.4C1338.5,1260.5,1340.8,1261.5,1343.2,1262.4z"/>
			
				<linearGradient id="SVGID_00000001652840983206033820000001291277784609785770_" gradientUnits="userSpaceOnUse" x1="1304.5121" y1="703.508" x2="1304.5121" y2="1281.7523">
				<stop  offset="0" style="stop-color:#00BBFE"/>
				<stop  offset="1" style="stop-color:#0080FF"/>
			</linearGradient>
			<path style="fill:url(#SVGID_00000001652840983206033820000001291277784609785770_);" d="M1534.6,1036.6
				c-16.9,33.9-36.9,66-59.4,96c-9.2,12.2-18.8,24.1-28.9,35.6c-9.4,10.7-19.1,21.2-29.2,31.2c-3.2,3.2-6.4,6.3-9.6,9.4
				c-2.6,2.5-5.2,5-7.9,7.4c-2.5,2.3-5,4.6-7.6,6.9c-3.6,3.2-7.2,6.4-10.9,9.5c-2.3,2-4.6,3.9-7,5.8c-1.3,1-2.5,2.1-3.8,3.1
				l-16.8-6.3c-2-0.8-4-1.6-6.1-2.4c-0.6-0.3-1.2-0.5-1.7-0.7l-6.2-2.5c-2.4-1-4.7-2-6.8-2.9c-2.3-1-4.6-2-7-3.1
				c-1.6-0.7-3.2-1.5-4.8-2.2l-0.8-0.4c0,0-2.3-1.1-2.6-1.3c-1.6-0.8-3.2-1.6-4.8-2.4l-0.4-0.2c-1.2-0.6-2.3-1.1-3.5-1.7l-0.6-0.3
				c-1.7-0.9-3.5-1.7-5.3-2.7c0,0-3.7-1.9-5.3-2.8s-3-1.6-4.6-2.5l-0.4-0.2c-3.3-1.8-6.3-3.5-9-5.1c0,0-4.5-2.6-5.6-3.3
				c-2.5-1.5-5-3.1-7.5-4.6l-0.6-0.4c-2.3-1.5-4.7-2.9-6.8-4.4c-0.5-0.3-1-0.7-1.6-1c0,0-1.6-1-3.1-2.1c2.9-1.9,5.7-3.8,8.6-5.8
				c0.2-0.1,0.4-0.3,0.6-0.4c2.5-1.8,5-3.5,7.5-5.3c0.3-0.2,0.5-0.4,0.8-0.5c2.6-1.9,5.2-3.8,7.8-5.8c2.3-1.7,4.6-3.5,6.9-5.3
				c3.2-2.5,6.4-5,9.5-7.6c2.4-1.9,4.7-3.9,7.1-5.8c0.3-0.3,0.6-0.5,0.8-0.7c2.6-2.2,5.1-4.4,7.6-6.6c2.6-2.3,5.1-4.6,7.7-6.9
				c11.3-10.4,22.2-21.3,32.5-32.6c10.5-11.6,20.5-23.6,29.9-36.1c-43.1-21.5-91.7-33.5-143-33.5c-34.7,0-68.2,5.5-99.5,15.8
				c-1.2,0.3-2.4,0.8-3.6,1.2c-4.6,1.5-9.2,3.2-13.7,5c0,0,0,0-0.1,0h0l-2.1-3.2l-0.6-0.9c-0.7-1.1-1.5-2.2-2.2-3.3
				c-0.5-0.8-1-1.6-1.5-2.4c-1.5-2.3-2.9-4.5-4.2-6.7l-0.2-0.3c-0.7-1.1-1.4-2.2-2-3.2c-1.3-2.2-2.6-4.4-4-6.8c-1-1.6-1.9-3.3-3-5.1
				c-0.1-0.2-0.2-0.4-0.3-0.6l-2.2-3.8l-0.3-0.6c-0.2-0.3-0.4-0.8-0.6-1.1l-0.2-0.5l-0.3-0.5c-0.7-1.3-1.4-2.6-2.1-3.9l-0.1-0.3
				c-2.6-4.8-5.2-9.7-7.5-14.6l-0.2-0.3c-0.6-1.2-1.1-2.4-1.7-3.5c0,0,0,0,0-0.1c0,0-0.7-1.4-1.3-2.7c-0.3-0.7-0.6-1.3-0.8-1.7
				c-0.1-0.1-0.1-0.2-0.1-0.2c-0.2-0.4-0.4-0.9-0.6-1.3c-0.7-1.5-1.4-2.9-2-4.4l-0.2-0.4c-1.2-2.6-2.4-5.2-3.5-7.9
				c-0.8-1.8-1.5-3.6-2.3-5.4c-0.1-0.2-0.2-0.4-0.3-0.7c-0.3-0.7-0.6-1.4-0.9-2.1c-0.4-1.1-0.9-2.2-1.3-3.3c-0.6-1.5-1.2-3-1.8-4.4
				c-0.2-0.6-0.4-1.1-0.6-1.7c41.3-17.5,86-28.9,132.7-32.7c3.1-0.3,6.3-0.5,9.4-0.7c8.6-0.5,17.3-0.8,26.1-0.8
				c72.1,0,140,17.6,199.7,48.9C1475.9,989.3,1506.9,1011.1,1534.6,1036.6z"/>
			
				<linearGradient id="SVGID_00000065053277580786974530000018357455965980724626_" gradientUnits="userSpaceOnUse" x1="1319.8604" y1="689.1252" x2="1319.8604" y2="1305.2819">
				<stop  offset="0" style="stop-color:#00BBFE"/>
				<stop  offset="1" style="stop-color:#0080FF"/>
			</linearGradient>
			<path style="fill:url(#SVGID_00000065053277580786974530000018357455965980724626_);" d="M1597.5,816.2
				c-3.9,41.9-11.9,82.6-23.7,121.7c-4,13.3-8.4,26.3-13.2,39.2c-29.2-24.6-61.3-45.9-95.7-63.3c4.3-13.4,8-27.1,11.3-41
				c-70-35.9-149.4-56.1-233.5-56.1c-14.9,0-29.7,0.6-44.4,1.9c-4.9,0.4-9.7,0.9-14.5,1.5c0,0,0,0-0.1,0c-4.8,0.6-9.6,1.2-14.4,1.9
				c-2.4,0.3-4.9,0.7-7.2,1.1c-7.1,1.1-14.2,2.4-21.3,3.8c-7.1,1.4-14.1,3-21,4.7c-4.6,1.1-9.2,2.3-13.8,3.6
				c-2.3,0.6-4.6,1.3-6.9,1.9c-2.2,0.6-4.4,1.3-6.6,1.9c-15.3,4.7-30.3,10-44.9,16h0c-0.1-0.3-0.1-0.6-0.1-0.9l0-0.2l0-0.2
				c-0.1-0.7-0.2-1.4-0.3-2.1c-0.3-1.8-0.5-3.6-0.8-5.4c-0.1-0.8-0.2-1.5-0.3-2.3l-0.1-0.7c-0.8-6.9-1.6-13.9-2.1-20.9
				c-0.1-1-0.2-1.9-0.2-2.9c-0.2-3-0.4-6-0.6-9c-0.1-1.2-0.1-2.4-0.2-3.6c-0.2-4.5-0.4-8.9-0.5-13.4V793c0-0.8,0-1.7-0.1-2.6
				c0-2.5-0.1-4.9-0.1-7.4c0-2.7,0-5.4,0.1-8.2c0.1-5.4,0.3-10.9,0.6-16.3c0.1-2.7,0.3-5.4,0.5-8.1l0.8-12.8
				c62.3-20.9,129.1-32.2,198.5-32.2c87.5,0,170.9,18,246.4,50.6C1527.3,772.5,1563.6,792.7,1597.5,816.2z"/>
			
				<linearGradient id="SVGID_00000125588774335396332230000010606931590855551640_" gradientUnits="userSpaceOnUse" x1="1047.4899" y1="853.901" x2="1047.4899" y2="855.5328">
				<stop  offset="0" style="stop-color:#00BBFE"/>
				<stop  offset="1" style="stop-color:#0080FF"/>
			</linearGradient>
			<path style="fill:url(#SVGID_00000125588774335396332230000010606931590855551640_);" d="M1047.5,855c-0.1-0.3-0.1-0.6-0.1-0.9
				l0.1,0.4C1047.5,854.6,1047.5,854.8,1047.5,855L1047.5,855L1047.5,855L1047.5,855z"/>
			
				<linearGradient id="SVGID_00000149354075937171269440000011436679496398376079_" gradientUnits="userSpaceOnUse" x1="992.9053" y1="693.0048" x2="992.9053" y2="1268.9769">
				<stop  offset="0" style="stop-color:#00BBFE"/>
				<stop  offset="1" style="stop-color:#0080FF"/>
			</linearGradient>
			<path style="fill:url(#SVGID_00000149354075937171269440000011436679496398376079_);" d="M1083.3,1042.2
				c-33.3,17-63.5,39.1-90,65.9c-14.6-23.9-27.7-48.9-39-74.7c-8.8-20-16.5-40.6-23.1-61.6c-4.2-13.4-8.1-26.9-11.4-40.7
				c-9.8-40.2-15.7-81.9-17.2-124.8c35-22.8,72.4-42.2,111.8-57.7c-0.8,11.4-1.1,22.8-1.1,34.4c0,3.6,0,7.2,0.1,10.7
				c0.1,3,0.1,6.1,0.3,9.1c0.1,1.6,0.1,3.3,0.2,4.9c0.1,2.4,0.2,4.7,0.3,7l0.1,1c0.2,3,0.4,5.9,0.6,8.9c0.1,0.8,0.1,1.7,0.2,2.6
				c0.2,2.4,0.4,4.7,0.6,7c0.1,1.2,0.3,2.4,0.4,3.7c0.3,2.6,0.6,5.1,0.9,7.6c0.1,0.5,0.1,1,0.2,1.6c0.3,2.7,0.7,5.4,1.1,8.1
				c0.1,1,0.3,2.1,0.5,3.1c0.4,3,0.9,5.9,1.4,8.8c5.8,35.4,15.3,69.5,28,102.1c1.1,2.8,2.2,5.6,3.4,8.4c1.2,2.9,2.4,5.7,3.6,8.5
				c1.2,2.8,2.5,5.6,3.8,8.4c1,2.2,1.9,4.3,3,6.5c0.5,1,1,2.1,1.5,3.1c1,2,1.9,4,2.9,5.9c2.6,5.3,5.3,10.4,8.1,15.6
				c0.8,1.5,1.7,3.1,2.5,4.7c0.4,0.8,0.8,1.6,1.3,2.3c0.9,1.7,1.9,3.4,2.9,5C1081.6,1039.2,1082.4,1040.7,1083.3,1042.2z"/>
			
				<linearGradient id="SVGID_00000103963522935966880870000013344134823374863264_" gradientUnits="userSpaceOnUse" x1="1000.6448" y1="689.1295" x2="1000.6448" y2="1305.2401">
				<stop  offset="0" style="stop-color:#00BBFE"/>
				<stop  offset="1" style="stop-color:#0080FF"/>
			</linearGradient>
			<path style="fill:url(#SVGID_00000103963522935966880870000013344134823374863264_);" d="M1098.8,1066.9L1098.8,1066.9
				c-2.1,1.1-4.2,2.2-6.3,3.2c-2.1,1.1-4.1,2.2-6.2,3.3c-3.1,1.7-6.1,3.5-9.1,5.3c-3,1.8-6,3.7-8.9,5.6c-4.9,3.2-9.7,6.5-14.4,9.9
				c0,0,0,0,0,0c-4.7,3.4-9.3,7-13.8,10.6c-9,7.3-17.6,15.1-25.8,23.4c-1.6,1.7-3.2,3.3-4.9,5c-5.6-8.2-11-16.6-16.2-25.1
				c-14.6-23.9-27.7-48.9-39-74.7c-8.8-20-16.5-40.6-23.1-61.6c-4.2-13.4-8.1-26.9-11.4-40.7c-9.8-40.2-15.7-81.9-17.2-124.8
				c35-22.8,72.4-42.2,111.8-57.7c-0.8,11.4-1.1,22.8-1.1,34.4c0,3.6,0,7.2,0.1,10.7c0.1,3,0.1,6.1,0.3,9.1c0.1,1.6,0.1,3.3,0.2,4.9
				c0.1,2.4,0.2,4.7,0.3,7l0.1,1c0.2,3,0.4,5.9,0.6,8.9c0.1,0.8,0.1,1.7,0.2,2.6c0.2,2.4,0.4,4.7,0.6,7c0.1,1.2,0.3,2.4,0.4,3.7
				c0.3,2.6,0.6,5.1,0.9,7.6c0.1,0.5,0.1,1,0.2,1.6c0.3,2.7,0.7,5.4,1.1,8.1c0.1,1,0.3,2.1,0.5,3.1c0.4,3,0.9,5.9,1.4,8.8
				c5.8,35.4,15.3,69.5,28,102.1c1.1,2.8,2.2,5.6,3.4,8.4c1.2,2.9,2.4,5.7,3.6,8.5c1.2,2.8,2.5,5.6,3.8,8.4c1,2.2,1.9,4.3,3,6.5
				c0.5,1,1,2.1,1.5,3.1c1,2,1.9,4,2.9,5.9c2.6,5.3,5.3,10.4,8.1,15.6c0.8,1.5,1.7,3.1,2.5,4.7c0.4,0.8,0.8,1.6,1.3,2.3
				c0.9,1.7,1.9,3.4,2.9,5c0.8,1.5,1.7,3,2.6,4.4c1.6,2.7,3.2,5.4,4.8,8c0.8,1.2,1.5,2.4,2.3,3.6
				C1093.1,1058.2,1095.9,1062.6,1098.8,1066.9z"/>
		</g>
	</g>
</g>
</svg>
